<?xml version="1.0" encoding="us-ascii" standalone="no"?><svg xmlns="http://www.w3.org/2000/svg" xmlns:xlink="http://www.w3.org/1999/xlink" contentStyleType="text/css" height="609px" preserveAspectRatio="none" style="width:454px;height:609px;background:#FFFFFF;" version="1.1" viewBox="0 0 454 609" width="454px" zoomAndPan="magnify"><defs/><g><!--cluster hilf--><g id="cluster_hilf"><path d="M8.5,6 L31.5,6 A3.75,3.75 0 0 1 34,8.5 L41,29.6094 L444.5,29.6094 A2.5,2.5 0 0 1 447,32.1094 L447,599.5 A2.5,2.5 0 0 1 444.5,602 L8.5,602 A2.5,2.5 0 0 1 6,599.5 L6,8.5 A2.5,2.5 0 0 1 8.5,6 " fill="none" style="stroke:#000000;stroke-width:1.5;"/><line style="stroke:#000000;stroke-width:1.5;" x1="6" x2="41" y1="29.6094" y2="29.6094"/><text fill="#000000" font-family="sans-serif" font-size="14" font-weight="bold" lengthAdjust="spacing" textLength="22" x="10" y="22.5332">hilf</text></g><!--class Prozess--><g id="elem_Prozess"><rect codeLine="8" fill="#FFFFFF" height="153.6563" id="Prozess" rx="2.5" ry="2.5" style="stroke:#000000;stroke-width:0.5;" width="188" x="243" y="86"/><ellipse cx="307.25" cy="102" fill="#FFFFFF" rx="11" ry="11" style="stroke:#181818;stroke-width:1.0;"/><path d="M308.2031,98.6406 L308.2031,105.2969 L309.9219,105.2969 Q310.5313,105.2969 310.7969,105.5313 Q311.0625,105.7656 311.0625,106.1563 Q311.0625,106.5313 310.7969,106.7656 Q310.5313,107 309.9219,107 L304.7813,107 Q304.1719,107 303.9063,106.7656 Q303.6406,106.5313 303.6406,106.1406 Q303.6406,105.7656 303.9063,105.5313 Q304.1719,105.2969 304.7813,105.2969 L306.5,105.2969 L306.5,98.6406 L304.7813,98.6406 Q304.1719,98.6406 303.9063,98.4063 Q303.6406,98.1719 303.6406,97.7813 Q303.6406,97.4063 303.9063,97.1719 Q304.1719,96.9375 304.7813,96.9375 L309.9219,96.9375 Q310.5313,96.9375 310.7969,97.1719 Q311.0625,97.4063 311.0625,97.7813 Q311.0625,98.1719 310.7969,98.4063 Q310.5313,98.6406 309.9219,98.6406 L308.2031,98.6406 Z " fill="#000000"/><text fill="#000000" font-family="sans-serif" font-size="14" font-style="italic" lengthAdjust="spacing" textLength="51" x="327.75" y="107.7285">Prozess</text><line style="stroke:#000000;stroke-width:0.5;" x1="244" x2="430" y1="118" y2="118"/><line style="stroke:#000000;stroke-width:0.5;" x1="244" x2="430" y1="126" y2="126"/><text fill="#000000" font-family="sans-serif" font-size="14" lengthAdjust="spacing" textLength="176" x="249" y="144.5332">+StarteLoop( time.Duration)</text><text fill="#000000" font-family="sans-serif" font-size="14" lengthAdjust="spacing" textLength="129" x="249" y="162.1426">+StarteRate( uint64)</text><text fill="#000000" font-family="sans-serif" font-size="14" lengthAdjust="spacing" textLength="56" x="249" y="179.752">+Starte()</text><text fill="#000000" font-family="sans-serif" font-size="14" lengthAdjust="spacing" textLength="113" x="249" y="197.3613">+GibRate() uint64</text><text fill="#000000" font-family="sans-serif" font-size="14" lengthAdjust="spacing" textLength="63" x="249" y="214.9707">+Stoppe()</text><text fill="#000000" font-family="sans-serif" font-size="14" lengthAdjust="spacing" textLength="89" x="249" y="232.5801">+Laeuft() bool</text></g><!--class Vec2--><g id="elem_Vec2"><rect codeLine="17" fill="#FFFFFF" height="241.7031" id="Vec2" rx="2.5" ry="2.5" style="stroke:#000000;stroke-width:0.5;" width="185" x="22.5" y="42"/><ellipse cx="94.75" cy="58" fill="#FFFFFF" rx="11" ry="11" style="stroke:#181818;stroke-width:1.0;"/><path d="M92.8594,62.5625 Q92.6406,62.8281 92.5,62.9063 Q92.3594,62.9844 92.1719,62.9844 Q91.7813,62.9844 91.5391,62.7188 Q91.2969,62.4531 91.2969,61.8594 L91.2969,60.7031 Q91.2969,60.0938 91.5391,59.8359 Q91.7813,59.5781 92.1719,59.5781 Q92.4688,59.5781 92.6719,59.7344 Q92.875,59.8906 92.9844,60.2578 Q93.0938,60.625 93.2031,60.7656 Q93.4531,61.0156 94.0625,61.2813 Q94.6719,61.5469 95.4063,61.5469 Q96.5469,61.5469 97.2656,61.0156 Q97.7344,60.6875 97.7344,60.2188 Q97.7344,59.9063 97.5156,59.625 Q97.2969,59.3438 96.7813,59.1719 Q96.4531,59.0469 95.2969,58.8281 Q93.9063,58.5625 93.1875,58.2031 Q92.4688,57.8438 92.0547,57.1797 Q91.6406,56.5156 91.6406,55.7344 Q91.6406,54.5156 92.6641,53.6016 Q93.6875,52.6875 95.3281,52.6875 Q95.9844,52.6875 96.5391,52.8281 Q97.0938,52.9688 97.5625,53.2656 Q97.8906,52.9531 98.2188,52.9531 Q98.5938,52.9531 98.8281,53.2109 Q99.0625,53.4688 99.0625,54.0781 L99.0625,55.3594 Q99.0625,55.9688 98.8281,56.2266 Q98.5938,56.4844 98.2188,56.4844 Q97.9063,56.4844 97.6719,56.2969 Q97.4844,56.1563 97.3984,55.7344 Q97.3125,55.3125 97.1719,55.125 Q96.9219,54.8125 96.4453,54.6016 Q95.9688,54.3906 95.3281,54.3906 Q94.4063,54.3906 93.875,54.8125 Q93.3438,55.2344 93.3438,55.7031 Q93.3438,56.0156 93.5625,56.3125 Q93.7813,56.6094 94.2031,56.7813 Q94.4844,56.8906 95.7891,57.1484 Q97.0938,57.4063 97.7969,57.7109 Q98.5,58.0156 98.9688,58.6719 Q99.4375,59.3281 99.4375,60.2344 Q99.4375,61.5 98.5469,62.25 Q97.3594,63.25 95.5313,63.25 Q94.8281,63.25 94.1641,63.0781 Q93.5,62.9063 92.8594,62.5625 Z " fill="#000000"/><text fill="#000000" font-family="sans-serif" font-size="14" lengthAdjust="spacing" textLength="32" x="115.25" y="63.7285">Vec2</text><line style="stroke:#000000;stroke-width:0.5;" x1="23.5" x2="206.5" y1="74" y2="74"/><text fill="#000000" font-family="sans-serif" font-size="14" lengthAdjust="spacing" textLength="58" x="28.5" y="92.5332">-x float64</text><line style="stroke:#000000;stroke-width:0.5;" x1="23.5" x2="206.5" y1="99.6094" y2="99.6094"/><text fill="#000000" font-family="sans-serif" font-size="14" lengthAdjust="spacing" textLength="73" x="28.5" y="118.1426">+X() float64</text><text fill="#000000" font-family="sans-serif" font-size="14" lengthAdjust="spacing" textLength="74" x="28.5" y="135.752">+Y() float64</text><text fill="#000000" font-family="sans-serif" font-size="14" lengthAdjust="spacing" textLength="86" x="28.5" y="153.3613">+IstNull() bool</text><text fill="#000000" font-family="sans-serif" font-size="14" lengthAdjust="spacing" textLength="107" x="28.5" y="170.9707">+Betrag() float64</text><text fill="#000000" font-family="sans-serif" font-size="14" lengthAdjust="spacing" textLength="107" x="28.5" y="188.5801">+Normiert() Vec2</text><text fill="#000000" font-family="sans-serif" font-size="14" lengthAdjust="spacing" textLength="145" x="28.5" y="206.1895">+Punkt(b Vec2) float64</text><text fill="#000000" font-family="sans-serif" font-size="14" lengthAdjust="spacing" textLength="125" x="28.5" y="223.7988">+Plus(b Vec2) Vec2</text><text fill="#000000" font-family="sans-serif" font-size="14" lengthAdjust="spacing" textLength="135" x="28.5" y="241.4082">+Minus(b Vec2) Vec2</text><text fill="#000000" font-family="sans-serif" font-size="14" lengthAdjust="spacing" textLength="127" x="28.5" y="259.0176">+Mal(f float64) Vec2</text><text fill="#000000" font-family="sans-serif" font-size="14" lengthAdjust="spacing" textLength="173" x="28.5" y="276.627">+ProjiziertAuf(u Vec2) Vec2</text></g><!--class prozess--><g id="elem_prozess"><rect codeLine="32" fill="#FFFFFF" height="241.7031" id="prozess" rx="2.5" ry="2.5" style="stroke:#000000;stroke-width:0.5;" width="209" x="221.5" y="344"/><ellipse cx="297.25" cy="360" fill="#FFFFFF" rx="11" ry="11" style="stroke:#181818;stroke-width:1.0;"/><path d="M295.3594,364.5625 Q295.1406,364.8281 295,364.9063 Q294.8594,364.9844 294.6719,364.9844 Q294.2813,364.9844 294.0391,364.7188 Q293.7969,364.4531 293.7969,363.8594 L293.7969,362.7031 Q293.7969,362.0938 294.0391,361.8359 Q294.2813,361.5781 294.6719,361.5781 Q294.9688,361.5781 295.1719,361.7344 Q295.375,361.8906 295.4844,362.2578 Q295.5938,362.625 295.7031,362.7656 Q295.9531,363.0156 296.5625,363.2813 Q297.1719,363.5469 297.9063,363.5469 Q299.0469,363.5469 299.7656,363.0156 Q300.2344,362.6875 300.2344,362.2188 Q300.2344,361.9063 300.0156,361.625 Q299.7969,361.3438 299.2813,361.1719 Q298.9531,361.0469 297.7969,360.8281 Q296.4063,360.5625 295.6875,360.2031 Q294.9688,359.8438 294.5547,359.1797 Q294.1406,358.5156 294.1406,357.7344 Q294.1406,356.5156 295.1641,355.6016 Q296.1875,354.6875 297.8281,354.6875 Q298.4844,354.6875 299.0391,354.8281 Q299.5938,354.9688 300.0625,355.2656 Q300.3906,354.9531 300.7188,354.9531 Q301.0938,354.9531 301.3281,355.2109 Q301.5625,355.4688 301.5625,356.0781 L301.5625,357.3594 Q301.5625,357.9688 301.3281,358.2266 Q301.0938,358.4844 300.7188,358.4844 Q300.4063,358.4844 300.1719,358.2969 Q299.9844,358.1563 299.8984,357.7344 Q299.8125,357.3125 299.6719,357.125 Q299.4219,356.8125 298.9453,356.6016 Q298.4688,356.3906 297.8281,356.3906 Q296.9063,356.3906 296.375,356.8125 Q295.8438,357.2344 295.8438,357.7031 Q295.8438,358.0156 296.0625,358.3125 Q296.2813,358.6094 296.7031,358.7813 Q296.9844,358.8906 298.2891,359.1484 Q299.5938,359.4063 300.2969,359.7109 Q301,360.0156 301.4688,360.6719 Q301.9375,361.3281 301.9375,362.2344 Q301.9375,363.5 301.0469,364.25 Q299.8594,365.25 298.0313,365.25 Q297.3281,365.25 296.6641,365.0781 Q296,364.9063 295.3594,364.5625 Z " fill="#000000"/><text fill="#000000" font-family="sans-serif" font-size="14" lengthAdjust="spacing" textLength="49" x="317.75" y="365.7285">prozess</text><line style="stroke:#000000;stroke-width:0.5;" x1="222.5" x2="429.5" y1="376" y2="376"/><text fill="#000000" font-family="sans-serif" font-size="14" lengthAdjust="spacing" textLength="79" x="227.5" y="394.5332">-name string</text><text fill="#000000" font-family="sans-serif" font-size="14" lengthAdjust="spacing" textLength="73" x="227.5" y="412.1426">-rate uint64</text><text fill="#000000" font-family="sans-serif" font-size="14" lengthAdjust="spacing" textLength="180" x="227.5" y="429.752">-verzoegerung time.Duration</text><text fill="#000000" font-family="sans-serif" font-size="14" lengthAdjust="spacing" textLength="32" x="227.5" y="447.3613">-stop</text><text fill="#0000FF" font-family="sans-serif" font-size="14" lengthAdjust="spacing" textLength="31" x="263.5" y="447.3613">chan</text><text fill="#000000" font-family="sans-serif" font-size="14" lengthAdjust="spacing" textLength="27" x="298.5" y="447.3613">bool</text><line style="stroke:#000000;stroke-width:0.5;" x1="222.5" x2="429.5" y1="454.4375" y2="454.4375"/><text fill="#000000" font-family="sans-serif" font-size="14" lengthAdjust="spacing" textLength="30" x="227.5" y="472.9707">-frun</text><text fill="#0000FF" font-family="sans-serif" font-size="14" lengthAdjust="spacing" textLength="27" x="261.5" y="472.9707">func</text><text fill="#000000" font-family="sans-serif" font-size="14" lengthAdjust="spacing" textLength="10" x="288.5" y="472.9707">()</text><text fill="#000000" font-family="sans-serif" font-size="14" lengthAdjust="spacing" textLength="89" x="227.5" y="490.5801">+Laeuft() bool</text><text fill="#000000" font-family="sans-serif" font-size="14" lengthAdjust="spacing" textLength="197" x="227.5" y="508.1895">+StarteLoop(tick time.Duration)</text><text fill="#000000" font-family="sans-serif" font-size="14" lengthAdjust="spacing" textLength="180" x="227.5" y="525.7988">+StarteRate(sollRate uint64)</text><text fill="#000000" font-family="sans-serif" font-size="14" lengthAdjust="spacing" textLength="56" x="227.5" y="543.4082">+Starte()</text><text fill="#000000" font-family="sans-serif" font-size="14" lengthAdjust="spacing" textLength="113" x="227.5" y="561.0176">+GibRate() uint64</text><text fill="#000000" font-family="sans-serif" font-size="14" lengthAdjust="spacing" textLength="63" x="227.5" y="578.627">+Stoppe()</text></g><!--reverse link Prozess to prozess--><g id="link_Prozess_prozess"><path codeLine="49" d="M333.5478,258.0778 C332.3878,289.5878 331.69,308.9 330.4,343.94 " fill="none" id="Prozess-backto-prozess" style="stroke:#000000;stroke-width:1.0;"/><polygon fill="none" points="334.21,240.09,327.5519,257.8571,339.5437,258.2985,334.21,240.09" style="stroke:#000000;stroke-width:1.0;"/><text fill="#000000" font-family="sans-serif" font-size="13" lengthAdjust="spacing" textLength="78" x="250.1834" y="333.188">implementiert</text></g><!--SRC=[hLDDRzim3BtxLn0-ETZS5SEmaniWsO0YG5S43R2FewnIZXPPDFIn3TdotoSvJgCatj13TT3XyV6H8f_iHkgE6TO2LypQcND6rjxXWfDUoIt2TMPFAV0xcpE-QGnv_VY151duifOEivanz7CFp5LWP7CoZsXIP9TfrgBj64TOIoM25eGZjKCZ8hWqjCLGewgWMBpkTISmdGwyU5x1oZ7Zy8weAy395gy-UiES93s12zO3SrY03mNUlni95oVOhQnx_cH8EA5JrvtHxnXwuG9M4wci3-pwUp-cpyZVzkzOZRwZX5yW5B5O9n7z6lGEy17zDeekhBltIXqwE0Rcw0nhHdFkoRGIJMmxDfX4bbvlN57ty5ZcKddx53xB_IJrVu9C5U8WU5dMq7UvZItDl2XyAd4nqYvnnx-c6Wq6DhXODmagZDTG2T8EUFJZJQqyJeNNl7eJqMcwsXA2d_3S12NyGBCbR31eDQVEIqWsEEMo4bypFLHAx3Bcer6VEyatp_Ew9QKUZjs_ZEU7HUooB8-_zchufJbKVyeISjbs2blKBcuntrE6LUNPNm00]--></g></svg>