<?xml version="1.0" encoding="us-ascii" standalone="no"?><svg xmlns="http://www.w3.org/2000/svg" xmlns:xlink="http://www.w3.org/1999/xlink" contentStyleType="text/css" height="432px" preserveAspectRatio="none" style="width:187px;height:432px;background:#FFFFFF;" version="1.1" viewBox="0 0 187 432" width="187px" zoomAndPan="magnify"><defs/><g><!--cluster klaenge--><g id="cluster_klaenge"><path d="M8.5,6 L65.5,6 A3.75,3.75 0 0 1 68,8.5 L75,29.6094 L177.5,29.6094 A2.5,2.5 0 0 1 180,32.1094 L180,422.5 A2.5,2.5 0 0 1 177.5,425 L8.5,425 A2.5,2.5 0 0 1 6,422.5 L6,8.5 A2.5,2.5 0 0 1 8.5,6 " fill="none" style="stroke:#000000;stroke-width:1.5;"/><line style="stroke:#000000;stroke-width:1.5;" x1="6" x2="75" y1="29.6094" y2="29.6094"/><text fill="#000000" font-family="sans-serif" font-size="14" font-weight="bold" lengthAdjust="spacing" textLength="56" x="10" y="22.5332">klaenge</text></g><!--class Klang--><g id="elem_Klang"><rect codeLine="8" fill="#FFFFFF" height="100.8281" id="Klang" rx="2.5" ry="2.5" style="stroke:#000000;stroke-width:0.5;" width="100" x="43" y="42"/><ellipse cx="72.4" cy="58" fill="#FFFFFF" rx="11" ry="11" style="stroke:#181818;stroke-width:1.0;"/><path d="M73.3531,54.6406 L73.3531,61.2969 L75.0719,61.2969 Q75.6813,61.2969 75.9469,61.5313 Q76.2125,61.7656 76.2125,62.1563 Q76.2125,62.5313 75.9469,62.7656 Q75.6813,63 75.0719,63 L69.9313,63 Q69.3219,63 69.0563,62.7656 Q68.7906,62.5313 68.7906,62.1406 Q68.7906,61.7656 69.0563,61.5313 Q69.3219,61.2969 69.9313,61.2969 L71.65,61.2969 L71.65,54.6406 L69.9313,54.6406 Q69.3219,54.6406 69.0563,54.4063 Q68.7906,54.1719 68.7906,53.7813 Q68.7906,53.4063 69.0563,53.1719 Q69.3219,52.9375 69.9313,52.9375 L75.0719,52.9375 Q75.6813,52.9375 75.9469,53.1719 Q76.2125,53.4063 76.2125,53.7813 Q76.2125,54.1719 75.9469,54.4063 Q75.6813,54.6406 75.0719,54.6406 L73.3531,54.6406 Z " fill="#000000"/><text fill="#000000" font-family="sans-serif" font-size="14" font-style="italic" lengthAdjust="spacing" textLength="36" x="89.6" y="63.7285">Klang</text><line style="stroke:#000000;stroke-width:0.5;" x1="44" x2="142" y1="74" y2="74"/><line style="stroke:#000000;stroke-width:0.5;" x1="44" x2="142" y1="82" y2="82"/><text fill="#000000" font-family="sans-serif" font-size="14" lengthAdjust="spacing" textLength="45" x="49" y="100.5332">+Play()</text><text fill="#000000" font-family="sans-serif" font-size="14" lengthAdjust="spacing" textLength="88" x="49" y="118.1426">+StarteLoop()</text><text fill="#000000" font-family="sans-serif" font-size="14" lengthAdjust="spacing" textLength="63" x="49" y="135.752">+Stoppe()</text></g><!--class klang--><g id="elem_klang"><rect codeLine="14" fill="#FFFFFF" height="206.4844" id="klang" rx="2.5" ry="2.5" style="stroke:#000000;stroke-width:0.5;" width="142" x="22" y="203"/><ellipse cx="71.75" cy="219" fill="#FFFFFF" rx="11" ry="11" style="stroke:#181818;stroke-width:1.0;"/><path d="M69.8594,223.5625 Q69.6406,223.8281 69.5,223.9063 Q69.3594,223.9844 69.1719,223.9844 Q68.7813,223.9844 68.5391,223.7188 Q68.2969,223.4531 68.2969,222.8594 L68.2969,221.7031 Q68.2969,221.0938 68.5391,220.8359 Q68.7813,220.5781 69.1719,220.5781 Q69.4688,220.5781 69.6719,220.7344 Q69.875,220.8906 69.9844,221.2578 Q70.0938,221.625 70.2031,221.7656 Q70.4531,222.0156 71.0625,222.2813 Q71.6719,222.5469 72.4063,222.5469 Q73.5469,222.5469 74.2656,222.0156 Q74.7344,221.6875 74.7344,221.2188 Q74.7344,220.9063 74.5156,220.625 Q74.2969,220.3438 73.7813,220.1719 Q73.4531,220.0469 72.2969,219.8281 Q70.9063,219.5625 70.1875,219.2031 Q69.4688,218.8438 69.0547,218.1797 Q68.6406,217.5156 68.6406,216.7344 Q68.6406,215.5156 69.6641,214.6016 Q70.6875,213.6875 72.3281,213.6875 Q72.9844,213.6875 73.5391,213.8281 Q74.0938,213.9688 74.5625,214.2656 Q74.8906,213.9531 75.2188,213.9531 Q75.5938,213.9531 75.8281,214.2109 Q76.0625,214.4688 76.0625,215.0781 L76.0625,216.3594 Q76.0625,216.9688 75.8281,217.2266 Q75.5938,217.4844 75.2188,217.4844 Q74.9063,217.4844 74.6719,217.2969 Q74.4844,217.1563 74.3984,216.7344 Q74.3125,216.3125 74.1719,216.125 Q73.9219,215.8125 73.4453,215.6016 Q72.9688,215.3906 72.3281,215.3906 Q71.4063,215.3906 70.875,215.8125 Q70.3438,216.2344 70.3438,216.7031 Q70.3438,217.0156 70.5625,217.3125 Q70.7813,217.6094 71.2031,217.7813 Q71.4844,217.8906 72.7891,218.1484 Q74.0938,218.4063 74.7969,218.7109 Q75.5,219.0156 75.9688,219.6719 Q76.4375,220.3281 76.4375,221.2344 Q76.4375,222.5 75.5469,223.25 Q74.3594,224.25 72.5313,224.25 Q71.8281,224.25 71.1641,224.0781 Q70.5,223.9063 69.8594,223.5625 Z " fill="#000000"/><text fill="#000000" font-family="sans-serif" font-size="14" lengthAdjust="spacing" textLength="34" x="92.25" y="224.7285">klang</text><line style="stroke:#000000;stroke-width:0.5;" x1="23" x2="163" y1="235" y2="235"/><text fill="#000000" font-family="sans-serif" font-size="14" lengthAdjust="spacing" textLength="66" x="28" y="253.5332">-titel string</text><text fill="#000000" font-family="sans-serif" font-size="14" lengthAdjust="spacing" textLength="130" x="28" y="271.1426">-dauer time.Duration</text><text fill="#000000" font-family="sans-serif" font-size="14" lengthAdjust="spacing" textLength="77" x="28" y="288.752">-autor string</text><text fill="#000000" font-family="sans-serif" font-size="14" lengthAdjust="spacing" textLength="120" x="28" y="306.3613">-player hilf.Prozess</text><line style="stroke:#000000;stroke-width:0.5;" x1="23" x2="163" y1="313.4375" y2="313.4375"/><text fill="#000000" font-family="sans-serif" font-size="14" lengthAdjust="spacing" textLength="31" x="28" y="331.9707">-play</text><text fill="#0000FF" font-family="sans-serif" font-size="14" lengthAdjust="spacing" textLength="27" x="63" y="331.9707">func</text><text fill="#000000" font-family="sans-serif" font-size="14" lengthAdjust="spacing" textLength="10" x="90" y="331.9707">()</text><text fill="#000000" font-family="sans-serif" font-size="14" lengthAdjust="spacing" textLength="4" x="28" y="349.5801">&#160;</text><text fill="#000000" font-family="sans-serif" font-size="14" lengthAdjust="spacing" textLength="45" x="28" y="367.1895">+Play()</text><text fill="#000000" font-family="sans-serif" font-size="14" lengthAdjust="spacing" textLength="88" x="28" y="384.7988">+StarteLoop()</text><text fill="#000000" font-family="sans-serif" font-size="14" lengthAdjust="spacing" textLength="63" x="28" y="402.4082">+Stoppe()</text></g><!--reverse link Klang to klang--><g id="link_Klang_klang"><path codeLine="28" d="M93,161.09 C93,179.04 93,182.02 93,202.83 " fill="none" id="Klang-backto-klang" style="stroke:#000000;stroke-width:1.0;"/><polygon fill="none" points="93,143.09,87,161.09,99,161.09,93,143.09" style="stroke:#000000;stroke-width:1.0;"/><text fill="#000000" font-family="sans-serif" font-size="13" lengthAdjust="spacing" textLength="67" x="23.5398" y="192.1562">implements</text></g><!--SRC=[fP31JiCm38RlUGghfqtGmWEKIkkuJ72Or0DdhtExg6aIEOaGWxuxQJTLPN33Xno-_xST_wwJsY9Z3xL2vpRUipm4JxlQw4gU2Hw5-sc1Jr5YtRLiWZvkZJ8CRoVfIMoOpVi5b2ewH6duIBmaWz3OaxDO4tGAIRS4SHx4ajeJDwFmeb2taEUmsjrFazTG55VNM7UmL_YnMiE2L1xPqwinzfORQsba4noczt96Dw-f_boJWezGWOk9w7Q1ZnY8ezXJzXmOlJHweMBmyTnVJJP-ENQTf6goFPipENUZGjuOxQ4Uutewg4154tITFuoqc2_uTm234Car-cnAEe7yAqqXaRrLr9FsBfaDKqQ9-0O0]--></g></svg>