<?xml version="1.0" encoding="us-ascii" standalone="no"?><svg xmlns="http://www.w3.org/2000/svg" xmlns:xlink="http://www.w3.org/1999/xlink" contentStyleType="text/css" height="1506px" preserveAspectRatio="none" style="width:1307px;height:1506px;background:#FFFFFF;" version="1.1" viewBox="0 0 1307 1506" width="1307px" zoomAndPan="magnify"><defs/><g><!--cluster modelle--><g id="cluster_modelle"><path d="M8.5,6 L65.5,6 A3.75,3.75 0 0 1 68,8.5 L75,29.6094 L1297.5,29.6094 A2.5,2.5 0 0 1 1300,32.1094 L1300,1496.5 A2.5,2.5 0 0 1 1297.5,1499 L8.5,1499 A2.5,2.5 0 0 1 6,1496.5 L6,8.5 A2.5,2.5 0 0 1 8.5,6 " fill="none" style="stroke:#000000;stroke-width:1.5;"/><line style="stroke:#000000;stroke-width:1.5;" x1="6" x2="75" y1="29.6094" y2="29.6094"/><text fill="#000000" font-family="sans-serif" font-size="14" font-weight="bold" lengthAdjust="spacing" textLength="56" x="10" y="22.5332">modelle</text></g><!--class MBKugel--><g id="elem_MBKugel"><rect codeLine="9" fill="#FFFFFF" height="259.3125" id="MBKugel" rx="2.5" ry="2.5" style="stroke:#000000;stroke-width:0.5;" width="198" x="1010" y="156.5"/><ellipse cx="1076.25" cy="172.5" fill="#FFFFFF" rx="11" ry="11" style="stroke:#181818;stroke-width:1.0;"/><path d="M1077.2031,169.1406 L1077.2031,175.7969 L1078.9219,175.7969 Q1079.5313,175.7969 1079.7969,176.0313 Q1080.0625,176.2656 1080.0625,176.6563 Q1080.0625,177.0313 1079.7969,177.2656 Q1079.5313,177.5 1078.9219,177.5 L1073.7813,177.5 Q1073.1719,177.5 1072.9063,177.2656 Q1072.6406,177.0313 1072.6406,176.6406 Q1072.6406,176.2656 1072.9063,176.0313 Q1073.1719,175.7969 1073.7813,175.7969 L1075.5,175.7969 L1075.5,169.1406 L1073.7813,169.1406 Q1073.1719,169.1406 1072.9063,168.9063 Q1072.6406,168.6719 1072.6406,168.2813 Q1072.6406,167.9063 1072.9063,167.6719 Q1073.1719,167.4375 1073.7813,167.4375 L1078.9219,167.4375 Q1079.5313,167.4375 1079.7969,167.6719 Q1080.0625,167.9063 1080.0625,168.2813 Q1080.0625,168.6719 1079.7969,168.9063 Q1079.5313,169.1406 1078.9219,169.1406 L1077.2031,169.1406 Z " fill="#000000"/><text fill="#000000" font-family="sans-serif" font-size="14" font-style="italic" lengthAdjust="spacing" textLength="57" x="1096.75" y="178.2285">MBKugel</text><line style="stroke:#000000;stroke-width:0.5;" x1="1011" x2="1207" y1="188.5" y2="188.5"/><line style="stroke:#000000;stroke-width:0.5;" x1="1011" x2="1207" y1="196.5" y2="196.5"/><text fill="#000000" font-family="sans-serif" font-size="14" lengthAdjust="spacing" textLength="186" x="1016" y="215.0332">+BewegenIn( MiniBillardSpiel)</text><text fill="#000000" font-family="sans-serif" font-size="14" lengthAdjust="spacing" textLength="185" x="1016" y="232.6426">+SetzeKollidiertMit( MBKugel)</text><text fill="#000000" font-family="sans-serif" font-size="14" lengthAdjust="spacing" textLength="158" x="1016" y="250.252">+SetzeKollidiertZurueck()</text><text fill="#000000" font-family="sans-serif" font-size="14" lengthAdjust="spacing" textLength="129" x="1016" y="267.8613">+IstEingelocht() bool</text><text fill="#000000" font-family="sans-serif" font-size="14" lengthAdjust="spacing" textLength="107" x="1016" y="285.4707">+GibV() hilf.Vec2</text><text fill="#000000" font-family="sans-serif" font-size="14" lengthAdjust="spacing" textLength="120" x="1016" y="303.0801">+SetzeV( hilf.Vec2)</text><text fill="#000000" font-family="sans-serif" font-size="14" lengthAdjust="spacing" textLength="47" x="1016" y="320.6895">+Stop()</text><text fill="#000000" font-family="sans-serif" font-size="14" lengthAdjust="spacing" textLength="122" x="1016" y="338.2988">+GibPos() hilf.Vec2</text><text fill="#000000" font-family="sans-serif" font-size="14" lengthAdjust="spacing" textLength="135" x="1016" y="355.9082">+SetzePos( hilf.Vec2)</text><text fill="#000000" font-family="sans-serif" font-size="14" lengthAdjust="spacing" textLength="131" x="1016" y="373.5176">+GibRadius() float64</text><text fill="#000000" font-family="sans-serif" font-size="14" lengthAdjust="spacing" textLength="105" x="1016" y="391.127">+GibWert() uint8</text><text fill="#000000" font-family="sans-serif" font-size="14" lengthAdjust="spacing" textLength="136" x="1016" y="408.7363">+GibKopie() MBKugel</text></g><!--class MBTasche--><g id="elem_MBTasche"><rect codeLine="25" fill="#FFFFFF" height="83.2188" id="MBTasche" rx="2.5" ry="2.5" style="stroke:#000000;stroke-width:0.5;" width="143" x="755.5" y="244.5"/><ellipse cx="789.85" cy="260.5" fill="#FFFFFF" rx="11" ry="11" style="stroke:#181818;stroke-width:1.0;"/><path d="M790.8031,257.1406 L790.8031,263.7969 L792.5219,263.7969 Q793.1313,263.7969 793.3969,264.0313 Q793.6625,264.2656 793.6625,264.6563 Q793.6625,265.0313 793.3969,265.2656 Q793.1313,265.5 792.5219,265.5 L787.3813,265.5 Q786.7719,265.5 786.5063,265.2656 Q786.2406,265.0313 786.2406,264.6406 Q786.2406,264.2656 786.5063,264.0313 Q786.7719,263.7969 787.3813,263.7969 L789.1,263.7969 L789.1,257.1406 L787.3813,257.1406 Q786.7719,257.1406 786.5063,256.9063 Q786.2406,256.6719 786.2406,256.2813 Q786.2406,255.9063 786.5063,255.6719 Q786.7719,255.4375 787.3813,255.4375 L792.5219,255.4375 Q793.1313,255.4375 793.3969,255.6719 Q793.6625,255.9063 793.6625,256.2813 Q793.6625,256.6719 793.3969,256.9063 Q793.1313,257.1406 792.5219,257.1406 L790.8031,257.1406 Z " fill="#000000"/><text fill="#000000" font-family="sans-serif" font-size="14" font-style="italic" lengthAdjust="spacing" textLength="68" x="808.15" y="266.2285">MBTasche</text><line style="stroke:#000000;stroke-width:0.5;" x1="756.5" x2="897.5" y1="276.5" y2="276.5"/><line style="stroke:#000000;stroke-width:0.5;" x1="756.5" x2="897.5" y1="284.5" y2="284.5"/><text fill="#000000" font-family="sans-serif" font-size="14" lengthAdjust="spacing" textLength="122" x="761.5" y="303.0332">+GibPos() hilf.Vec2</text><text fill="#000000" font-family="sans-serif" font-size="14" lengthAdjust="spacing" textLength="131" x="761.5" y="320.6426">+GibRadius() float64</text></g><!--class MiniBillardSpiel--><g id="elem_MiniBillardSpiel"><rect codeLine="30" fill="#FFFFFF" height="488.2344" id="MiniBillardSpiel" rx="2.5" ry="2.5" style="stroke:#000000;stroke-width:0.5;" width="238" x="482" y="42"/><ellipse cx="548.75" cy="58" fill="#FFFFFF" rx="11" ry="11" style="stroke:#181818;stroke-width:1.0;"/><path d="M549.7031,54.6406 L549.7031,61.2969 L551.4219,61.2969 Q552.0313,61.2969 552.2969,61.5313 Q552.5625,61.7656 552.5625,62.1563 Q552.5625,62.5313 552.2969,62.7656 Q552.0313,63 551.4219,63 L546.2813,63 Q545.6719,63 545.4063,62.7656 Q545.1406,62.5313 545.1406,62.1406 Q545.1406,61.7656 545.4063,61.5313 Q545.6719,61.2969 546.2813,61.2969 L548,61.2969 L548,54.6406 L546.2813,54.6406 Q545.6719,54.6406 545.4063,54.4063 Q545.1406,54.1719 545.1406,53.7813 Q545.1406,53.4063 545.4063,53.1719 Q545.6719,52.9375 546.2813,52.9375 L551.4219,52.9375 Q552.0313,52.9375 552.2969,53.1719 Q552.5625,53.4063 552.5625,53.7813 Q552.5625,54.1719 552.2969,54.4063 Q552.0313,54.6406 551.4219,54.6406 L549.7031,54.6406 Z " fill="#000000"/><text fill="#000000" font-family="sans-serif" font-size="14" font-style="italic" lengthAdjust="spacing" textLength="96" x="569.25" y="63.7285">MiniBillardSpiel</text><line style="stroke:#000000;stroke-width:0.5;" x1="483" x2="719" y1="74" y2="74"/><line style="stroke:#000000;stroke-width:0.5;" x1="483" x2="719" y1="82" y2="82"/><text fill="#000000" font-family="sans-serif" font-size="14" lengthAdjust="spacing" textLength="56" x="488" y="100.5332">+Starte()</text><text fill="#000000" font-family="sans-serif" font-size="14" lengthAdjust="spacing" textLength="63" x="488" y="118.1426">+Stoppe()</text><text fill="#000000" font-family="sans-serif" font-size="14" lengthAdjust="spacing" textLength="89" x="488" y="135.752">+Laeuft() bool</text><text fill="#000000" font-family="sans-serif" font-size="14" lengthAdjust="spacing" textLength="109" x="488" y="153.3613">+ZeitlupeAnAus()</text><text fill="#000000" font-family="sans-serif" font-size="14" lengthAdjust="spacing" textLength="99" x="488" y="170.9707">+PauseAnAus()</text><text fill="#000000" font-family="sans-serif" font-size="14" lengthAdjust="spacing" textLength="113" x="488" y="188.5801">+IstZeitlupe() bool</text><text fill="#000000" font-family="sans-serif" font-size="14" lengthAdjust="spacing" textLength="61" x="488" y="206.1895">+Stosse()</text><text fill="#000000" font-family="sans-serif" font-size="14" lengthAdjust="spacing" textLength="133" x="488" y="223.7988">+StossWiederholen()</text><text fill="#000000" font-family="sans-serif" font-size="14" lengthAdjust="spacing" textLength="55" x="488" y="241.4082">+Reset()</text><text fill="#000000" font-family="sans-serif" font-size="14" lengthAdjust="spacing" textLength="120" x="488" y="259.0176">+IstStillstand() bool</text><text fill="#000000" font-family="sans-serif" font-size="14" lengthAdjust="spacing" textLength="174" x="488" y="276.627">+GibTaschen() []MBTasche</text><text fill="#000000" font-family="sans-serif" font-size="14" lengthAdjust="spacing" textLength="152" x="488" y="294.2363">+GibKugeln() []MBKugel</text><text fill="#000000" font-family="sans-serif" font-size="14" lengthAdjust="spacing" textLength="190" x="488" y="311.8457">+GibAktiveKugeln() []MBKugel</text><text fill="#000000" font-family="sans-serif" font-size="14" lengthAdjust="spacing" textLength="140" x="488" y="329.4551">+Einlochen( MBKugel)</text><text fill="#000000" font-family="sans-serif" font-size="14" lengthAdjust="spacing" textLength="226" x="488" y="347.0645">+GibEingelochteKugeln() []MBKugel</text><text fill="#000000" font-family="sans-serif" font-size="14" lengthAdjust="spacing" textLength="165" x="488" y="364.6738">+GibSpielkugel() MBKugel</text><text fill="#000000" font-family="sans-serif" font-size="14" lengthAdjust="spacing" textLength="142" x="488" y="382.2832">+GibVStoss() hilf.Vec2</text><text fill="#000000" font-family="sans-serif" font-size="14" lengthAdjust="spacing" textLength="202" x="488" y="399.8926">+SetzeStossRichtung( hilf.Vec2)</text><text fill="#000000" font-family="sans-serif" font-size="14" lengthAdjust="spacing" textLength="163" x="488" y="417.502">+SetzeStosskraft( float64)</text><text fill="#000000" font-family="sans-serif" font-size="14" lengthAdjust="spacing" textLength="191" x="488" y="435.1113">+SetzeRestzeit( time.Duration)</text><text fill="#000000" font-family="sans-serif" font-size="14" lengthAdjust="spacing" textLength="178" x="488" y="452.7207">+GibRestzeit() time.Duration</text><text fill="#000000" font-family="sans-serif" font-size="14" lengthAdjust="spacing" textLength="118" x="488" y="470.3301">+GibTreffer() uint8</text><text fill="#000000" font-family="sans-serif" font-size="14" lengthAdjust="spacing" textLength="148" x="488" y="487.9395">+GibStrafpunkte() uint8</text><text fill="#000000" font-family="sans-serif" font-size="14" lengthAdjust="spacing" textLength="155" x="488" y="505.5488">+ReduziereStrafpunkte()</text><text fill="#000000" font-family="sans-serif" font-size="14" lengthAdjust="spacing" textLength="202" x="488" y="523.1582">+GibGroesse() (float64, float64)</text></g><!--class Quiz--><g id="elem_Quiz"><rect codeLine="58" fill="#FFFFFF" height="83.2188" id="Quiz" rx="2.5" ry="2.5" style="stroke:#000000;stroke-width:0.5;" width="210" x="237" y="244.5"/><ellipse cx="323.25" cy="260.5" fill="#FFFFFF" rx="11" ry="11" style="stroke:#181818;stroke-width:1.0;"/><path d="M324.2031,257.1406 L324.2031,263.7969 L325.9219,263.7969 Q326.5313,263.7969 326.7969,264.0313 Q327.0625,264.2656 327.0625,264.6563 Q327.0625,265.0313 326.7969,265.2656 Q326.5313,265.5 325.9219,265.5 L320.7813,265.5 Q320.1719,265.5 319.9063,265.2656 Q319.6406,265.0313 319.6406,264.6406 Q319.6406,264.2656 319.9063,264.0313 Q320.1719,263.7969 320.7813,263.7969 L322.5,263.7969 L322.5,257.1406 L320.7813,257.1406 Q320.1719,257.1406 319.9063,256.9063 Q319.6406,256.6719 319.6406,256.2813 Q319.6406,255.9063 319.9063,255.6719 Q320.1719,255.4375 320.7813,255.4375 L325.9219,255.4375 Q326.5313,255.4375 326.7969,255.6719 Q327.0625,255.9063 327.0625,256.2813 Q327.0625,256.6719 326.7969,256.9063 Q326.5313,257.1406 325.9219,257.1406 L324.2031,257.1406 Z " fill="#000000"/><text fill="#000000" font-family="sans-serif" font-size="14" font-style="italic" lengthAdjust="spacing" textLength="29" x="343.75" y="266.2285">Quiz</text><line style="stroke:#000000;stroke-width:0.5;" x1="238" x2="446" y1="276.5" y2="276.5"/><line style="stroke:#000000;stroke-width:0.5;" x1="238" x2="446" y1="284.5" y2="284.5"/><text fill="#000000" font-family="sans-serif" font-size="14" lengthAdjust="spacing" textLength="115" x="243" y="303.0332">+NaechsteFrage()</text><text fill="#000000" font-family="sans-serif" font-size="14" lengthAdjust="spacing" textLength="198" x="243" y="320.6426">+GibAktuelleFrage() QuizFrage</text></g><!--class QuizFrage--><g id="elem_QuizFrage"><rect codeLine="63" fill="#FFFFFF" height="118.4375" id="QuizFrage" rx="2.5" ry="2.5" style="stroke:#000000;stroke-width:0.5;" width="179" x="22.5" y="227"/><ellipse cx="74.25" cy="243" fill="#FFFFFF" rx="11" ry="11" style="stroke:#181818;stroke-width:1.0;"/><path d="M75.2031,239.6406 L75.2031,246.2969 L76.9219,246.2969 Q77.5313,246.2969 77.7969,246.5313 Q78.0625,246.7656 78.0625,247.1563 Q78.0625,247.5313 77.7969,247.7656 Q77.5313,248 76.9219,248 L71.7813,248 Q71.1719,248 70.9063,247.7656 Q70.6406,247.5313 70.6406,247.1406 Q70.6406,246.7656 70.9063,246.5313 Q71.1719,246.2969 71.7813,246.2969 L73.5,246.2969 L73.5,239.6406 L71.7813,239.6406 Q71.1719,239.6406 70.9063,239.4063 Q70.6406,239.1719 70.6406,238.7813 Q70.6406,238.4063 70.9063,238.1719 Q71.1719,237.9375 71.7813,237.9375 L76.9219,237.9375 Q77.5313,237.9375 77.7969,238.1719 Q78.0625,238.4063 78.0625,238.7813 Q78.0625,239.1719 77.7969,239.4063 Q77.5313,239.6406 76.9219,239.6406 L75.2031,239.6406 Z " fill="#000000"/><text fill="#000000" font-family="sans-serif" font-size="14" font-style="italic" lengthAdjust="spacing" textLength="67" x="94.75" y="248.7285">QuizFrage</text><line style="stroke:#000000;stroke-width:0.5;" x1="23.5" x2="200.5" y1="259" y2="259"/><line style="stroke:#000000;stroke-width:0.5;" x1="23.5" x2="200.5" y1="267" y2="267"/><text fill="#000000" font-family="sans-serif" font-size="14" lengthAdjust="spacing" textLength="117" x="28.5" y="285.5332">+GibFrage() string</text><text fill="#000000" font-family="sans-serif" font-size="14" lengthAdjust="spacing" textLength="150" x="28.5" y="303.1426">+GibAntworten() []string</text><text fill="#000000" font-family="sans-serif" font-size="14" lengthAdjust="spacing" textLength="96" x="28.5" y="320.752">+Gewaehlt( int)</text><text fill="#000000" font-family="sans-serif" font-size="14" lengthAdjust="spacing" textLength="167" x="28.5" y="338.3613">+RichtigBeantwortet() bool</text></g><!--class mbkugel--><g id="elem_mbkugel"><rect codeLine="70" fill="#FFFFFF" height="400.1875" id="mbkugel" rx="2.5" ry="2.5" style="stroke:#000000;stroke-width:0.5;" width="350" x="934" y="836.5"/><ellipse cx="1078.25" cy="852.5" fill="#FFFFFF" rx="11" ry="11" style="stroke:#181818;stroke-width:1.0;"/><path d="M1076.3594,857.0625 Q1076.1406,857.3281 1076,857.4063 Q1075.8594,857.4844 1075.6719,857.4844 Q1075.2813,857.4844 1075.0391,857.2188 Q1074.7969,856.9531 1074.7969,856.3594 L1074.7969,855.2031 Q1074.7969,854.5938 1075.0391,854.3359 Q1075.2813,854.0781 1075.6719,854.0781 Q1075.9688,854.0781 1076.1719,854.2344 Q1076.375,854.3906 1076.4844,854.7578 Q1076.5938,855.125 1076.7031,855.2656 Q1076.9531,855.5156 1077.5625,855.7813 Q1078.1719,856.0469 1078.9063,856.0469 Q1080.0469,856.0469 1080.7656,855.5156 Q1081.2344,855.1875 1081.2344,854.7188 Q1081.2344,854.4063 1081.0156,854.125 Q1080.7969,853.8438 1080.2813,853.6719 Q1079.9531,853.5469 1078.7969,853.3281 Q1077.4063,853.0625 1076.6875,852.7031 Q1075.9688,852.3438 1075.5547,851.6797 Q1075.1406,851.0156 1075.1406,850.2344 Q1075.1406,849.0156 1076.1641,848.1016 Q1077.1875,847.1875 1078.8281,847.1875 Q1079.4844,847.1875 1080.0391,847.3281 Q1080.5938,847.4688 1081.0625,847.7656 Q1081.3906,847.4531 1081.7188,847.4531 Q1082.0938,847.4531 1082.3281,847.7109 Q1082.5625,847.9688 1082.5625,848.5781 L1082.5625,849.8594 Q1082.5625,850.4688 1082.3281,850.7266 Q1082.0938,850.9844 1081.7188,850.9844 Q1081.4063,850.9844 1081.1719,850.7969 Q1080.9844,850.6563 1080.8984,850.2344 Q1080.8125,849.8125 1080.6719,849.625 Q1080.4219,849.3125 1079.9453,849.1016 Q1079.4688,848.8906 1078.8281,848.8906 Q1077.9063,848.8906 1077.375,849.3125 Q1076.8438,849.7344 1076.8438,850.2031 Q1076.8438,850.5156 1077.0625,850.8125 Q1077.2813,851.1094 1077.7031,851.2813 Q1077.9844,851.3906 1079.2891,851.6484 Q1080.5938,851.9063 1081.2969,852.2109 Q1082,852.5156 1082.4688,853.1719 Q1082.9375,853.8281 1082.9375,854.7344 Q1082.9375,856 1082.0469,856.75 Q1080.8594,857.75 1079.0313,857.75 Q1078.3281,857.75 1077.6641,857.5781 Q1077,857.4063 1076.3594,857.0625 Z " fill="#000000"/><text fill="#000000" font-family="sans-serif" font-size="14" lengthAdjust="spacing" textLength="53" x="1098.75" y="858.2285">mbkugel</text><line style="stroke:#000000;stroke-width:0.5;" x1="935" x2="1283" y1="868.5" y2="868.5"/><text fill="#000000" font-family="sans-serif" font-size="14" lengthAdjust="spacing" textLength="86" x="940" y="887.0332">-pos hilf.Vec2</text><text fill="#000000" font-family="sans-serif" font-size="14" lengthAdjust="spacing" textLength="57" x="940" y="904.6426">-r float64</text><text fill="#000000" font-family="sans-serif" font-size="14" lengthAdjust="spacing" textLength="66" x="940" y="922.252">-wert uint8</text><text fill="#000000" font-family="sans-serif" font-size="14" lengthAdjust="spacing" textLength="120" x="940" y="939.8613">-istKollMit MBKugel</text><text fill="#000000" font-family="sans-serif" font-size="14" lengthAdjust="spacing" textLength="101" x="940" y="957.4707">-eingelocht bool</text><line style="stroke:#000000;stroke-width:0.5;" x1="935" x2="1283" y1="964.5469" y2="964.5469"/><text fill="#000000" font-family="sans-serif" font-size="14" lengthAdjust="spacing" textLength="338" x="940" y="983.0801">-pruefeBandenKollision(laenge float64, breite float64)</text><text fill="#000000" font-family="sans-serif" font-size="14" lengthAdjust="spacing" textLength="219" x="940" y="1000.6895">-pruefeKugelKollision(k2 MBKugel)</text><text fill="#000000" font-family="sans-serif" font-size="14" lengthAdjust="spacing" textLength="4" x="940" y="1018.2988">&#160;</text><text fill="#000000" font-family="sans-serif" font-size="14" lengthAdjust="spacing" textLength="136" x="940" y="1035.9082">+GibKopie() MBKugel</text><text fill="#000000" font-family="sans-serif" font-size="14" lengthAdjust="spacing" textLength="193" x="940" y="1053.5176">+BewegenIn(s MiniBillardSpiel)</text><text fill="#000000" font-family="sans-serif" font-size="14" lengthAdjust="spacing" textLength="129" x="940" y="1071.127">+IstEingelocht() bool</text><text fill="#000000" font-family="sans-serif" font-size="14" lengthAdjust="spacing" textLength="200" x="940" y="1088.7363">+SetzeKollidiertMit(k2 MBKugel)</text><text fill="#000000" font-family="sans-serif" font-size="14" lengthAdjust="spacing" textLength="158" x="940" y="1106.3457">+SetzeKollidiertZurueck()</text><text fill="#000000" font-family="sans-serif" font-size="14" lengthAdjust="spacing" textLength="107" x="940" y="1123.9551">+GibV() hilf.Vec2</text><text fill="#000000" font-family="sans-serif" font-size="14" lengthAdjust="spacing" textLength="127" x="940" y="1141.5645">+SetzeV(v hilf.Vec2)</text><text fill="#000000" font-family="sans-serif" font-size="14" lengthAdjust="spacing" textLength="47" x="940" y="1159.1738">+Stop()</text><text fill="#000000" font-family="sans-serif" font-size="14" lengthAdjust="spacing" textLength="122" x="940" y="1176.7832">+GibPos() hilf.Vec2</text><text fill="#000000" font-family="sans-serif" font-size="14" lengthAdjust="spacing" textLength="158" x="940" y="1194.3926">+SetzePos(pos hilf.Vec2)</text><text fill="#000000" font-family="sans-serif" font-size="14" lengthAdjust="spacing" textLength="131" x="940" y="1212.002">+GibRadius() float64</text><text fill="#000000" font-family="sans-serif" font-size="14" lengthAdjust="spacing" textLength="105" x="940" y="1229.6113">+GibWert() uint8</text></g><!--class mbspiel--><g id="elem_mbspiel"><rect codeLine="94" fill="#FFFFFF" height="893.25" id="mbspiel" rx="2.5" ry="2.5" style="stroke:#000000;stroke-width:0.5;" width="238" x="482" y="590"/><ellipse cx="572.75" cy="606" fill="#FFFFFF" rx="11" ry="11" style="stroke:#181818;stroke-width:1.0;"/><path d="M570.8594,610.5625 Q570.6406,610.8281 570.5,610.9063 Q570.3594,610.9844 570.1719,610.9844 Q569.7813,610.9844 569.5391,610.7188 Q569.2969,610.4531 569.2969,609.8594 L569.2969,608.7031 Q569.2969,608.0938 569.5391,607.8359 Q569.7813,607.5781 570.1719,607.5781 Q570.4688,607.5781 570.6719,607.7344 Q570.875,607.8906 570.9844,608.2578 Q571.0938,608.625 571.2031,608.7656 Q571.4531,609.0156 572.0625,609.2813 Q572.6719,609.5469 573.4063,609.5469 Q574.5469,609.5469 575.2656,609.0156 Q575.7344,608.6875 575.7344,608.2188 Q575.7344,607.9063 575.5156,607.625 Q575.2969,607.3438 574.7813,607.1719 Q574.4531,607.0469 573.2969,606.8281 Q571.9063,606.5625 571.1875,606.2031 Q570.4688,605.8438 570.0547,605.1797 Q569.6406,604.5156 569.6406,603.7344 Q569.6406,602.5156 570.6641,601.6016 Q571.6875,600.6875 573.3281,600.6875 Q573.9844,600.6875 574.5391,600.8281 Q575.0938,600.9688 575.5625,601.2656 Q575.8906,600.9531 576.2188,600.9531 Q576.5938,600.9531 576.8281,601.2109 Q577.0625,601.4688 577.0625,602.0781 L577.0625,603.3594 Q577.0625,603.9688 576.8281,604.2266 Q576.5938,604.4844 576.2188,604.4844 Q575.9063,604.4844 575.6719,604.2969 Q575.4844,604.1563 575.3984,603.7344 Q575.3125,603.3125 575.1719,603.125 Q574.9219,602.8125 574.4453,602.6016 Q573.9688,602.3906 573.3281,602.3906 Q572.4063,602.3906 571.875,602.8125 Q571.3438,603.2344 571.3438,603.7031 Q571.3438,604.0156 571.5625,604.3125 Q571.7813,604.6094 572.2031,604.7813 Q572.4844,604.8906 573.7891,605.1484 Q575.0938,605.4063 575.7969,605.7109 Q576.5,606.0156 576.9688,606.6719 Q577.4375,607.3281 577.4375,608.2344 Q577.4375,609.5 576.5469,610.25 Q575.3594,611.25 573.5313,611.25 Q572.8281,611.25 572.1641,611.0781 Q571.5,610.9063 570.8594,610.5625 Z " fill="#000000"/><text fill="#000000" font-family="sans-serif" font-size="14" lengthAdjust="spacing" textLength="48" x="593.25" y="611.7285">mbspiel</text><line style="stroke:#000000;stroke-width:0.5;" x1="483" x2="719" y1="622" y2="622"/><text fill="#000000" font-family="sans-serif" font-size="14" lengthAdjust="spacing" textLength="88" x="488" y="640.5332">-breite float64</text><text fill="#000000" font-family="sans-serif" font-size="14" lengthAdjust="spacing" textLength="92" x="488" y="658.1426">-hoehe float64</text><text fill="#000000" font-family="sans-serif" font-size="14" lengthAdjust="spacing" textLength="64" x="488" y="675.752">-rk float64</text><text fill="#000000" font-family="sans-serif" font-size="14" lengthAdjust="spacing" textLength="115" x="488" y="693.3613">-kugeln []MBKugel</text><text fill="#000000" font-family="sans-serif" font-size="14" lengthAdjust="spacing" textLength="141" x="488" y="710.9707">-origKugeln []MBKugel</text><text fill="#000000" font-family="sans-serif" font-size="14" lengthAdjust="spacing" textLength="156" x="488" y="728.5801">-vorigeKugeln []MBKugel</text><text fill="#000000" font-family="sans-serif" font-size="14" lengthAdjust="spacing" textLength="128" x="488" y="746.1895">-spielkugel MBKugel</text><text fill="#000000" font-family="sans-serif" font-size="14" lengthAdjust="spacing" textLength="123" x="488" y="763.7988">-stossricht hilf.Vec2</text><text fill="#000000" font-family="sans-serif" font-size="14" lengthAdjust="spacing" textLength="113" x="488" y="781.4082">-stosskraft float64</text><text fill="#000000" font-family="sans-serif" font-size="14" lengthAdjust="spacing" textLength="134" x="488" y="799.0176">-taschen []MBTasche</text><text fill="#000000" font-family="sans-serif" font-size="14" lengthAdjust="spacing" textLength="146" x="488" y="816.627">-eingelochte []MBKugel</text><text fill="#000000" font-family="sans-serif" font-size="14" lengthAdjust="spacing" textLength="112" x="488" y="834.2363">-strafPunkte uint8</text><text fill="#000000" font-family="sans-serif" font-size="14" lengthAdjust="spacing" textLength="91" x="488" y="851.8457">-stillstand bool</text><text fill="#000000" font-family="sans-serif" font-size="14" lengthAdjust="spacing" textLength="130" x="488" y="869.4551">-updater hilf.Prozess</text><text fill="#000000" font-family="sans-serif" font-size="14" lengthAdjust="spacing" textLength="119" x="488" y="887.0645">-startzeit time.Time</text><text fill="#000000" font-family="sans-serif" font-size="14" lengthAdjust="spacing" textLength="143" x="488" y="904.6738">-spielzeit time.Duration</text><text fill="#000000" font-family="sans-serif" font-size="14" lengthAdjust="spacing" textLength="96" x="488" y="922.2832">-zeitlupe uint64</text><line style="stroke:#000000;stroke-width:0.5;" x1="483" x2="719" y1="929.3594" y2="929.3594"/><text fill="#000000" font-family="sans-serif" font-size="14" lengthAdjust="spacing" textLength="190" x="488" y="947.8926">-setzeTaschen(t ...MBTasche)</text><text fill="#000000" font-family="sans-serif" font-size="14" lengthAdjust="spacing" textLength="171" x="488" y="965.502">-setzeKugeln(k ...MBKugel)</text><text fill="#000000" font-family="sans-serif" font-size="14" lengthAdjust="spacing" textLength="165" x="488" y="983.1113">-kugelSatz3er() []MBKugel</text><text fill="#000000" font-family="sans-serif" font-size="14" lengthAdjust="spacing" textLength="175" x="488" y="1000.7207">-kugelSatz9Ball() []MBKugel</text><text fill="#000000" font-family="sans-serif" font-size="14" lengthAdjust="spacing" textLength="4" x="488" y="1018.3301">&#160;</text><text fill="#000000" font-family="sans-serif" font-size="14" lengthAdjust="spacing" textLength="128" x="488" y="1035.9395">+SetzeKugeln9Ball()</text><text fill="#000000" font-family="sans-serif" font-size="14" lengthAdjust="spacing" textLength="56" x="488" y="1053.5488">+Starte()</text><text fill="#000000" font-family="sans-serif" font-size="14" lengthAdjust="spacing" textLength="89" x="488" y="1071.1582">+Laeuft() bool</text><text fill="#000000" font-family="sans-serif" font-size="14" lengthAdjust="spacing" textLength="63" x="488" y="1088.7676">+Stoppe()</text><text fill="#000000" font-family="sans-serif" font-size="14" lengthAdjust="spacing" textLength="109" x="488" y="1106.377">+ZeitlupeAnAus()</text><text fill="#000000" font-family="sans-serif" font-size="14" lengthAdjust="spacing" textLength="99" x="488" y="1123.9863">+PauseAnAus()</text><text fill="#000000" font-family="sans-serif" font-size="14" lengthAdjust="spacing" textLength="113" x="488" y="1141.5957">+IstZeitlupe() bool</text><text fill="#000000" font-family="sans-serif" font-size="14" lengthAdjust="spacing" textLength="142" x="488" y="1159.2051">+GibVStoss() hilf.Vec2</text><text fill="#000000" font-family="sans-serif" font-size="14" lengthAdjust="spacing" textLength="209" x="488" y="1176.8145">+SetzeStossRichtung(v hilf.Vec2)</text><text fill="#000000" font-family="sans-serif" font-size="14" lengthAdjust="spacing" textLength="170" x="488" y="1194.4238">+SetzeStosskraft(v float64)</text><text fill="#000000" font-family="sans-serif" font-size="14" lengthAdjust="spacing" textLength="61" x="488" y="1212.0332">+Stosse()</text><text fill="#000000" font-family="sans-serif" font-size="14" lengthAdjust="spacing" textLength="195" x="488" y="1229.6426">+SetzeRestzeit(t time.Duration)</text><text fill="#000000" font-family="sans-serif" font-size="14" lengthAdjust="spacing" textLength="178" x="488" y="1247.252">+GibRestzeit() time.Duration</text><text fill="#000000" font-family="sans-serif" font-size="14" lengthAdjust="spacing" textLength="55" x="488" y="1264.8613">+Reset()</text><text fill="#000000" font-family="sans-serif" font-size="14" lengthAdjust="spacing" textLength="133" x="488" y="1282.4707">+StossWiederholen()</text><text fill="#000000" font-family="sans-serif" font-size="14" lengthAdjust="spacing" textLength="152" x="488" y="1300.0801">+GibKugeln() []MBKugel</text><text fill="#000000" font-family="sans-serif" font-size="14" lengthAdjust="spacing" textLength="165" x="488" y="1317.6895">+GibSpielkugel() MBKugel</text><text fill="#000000" font-family="sans-serif" font-size="14" lengthAdjust="spacing" textLength="190" x="488" y="1335.2988">+GibAktiveKugeln() []MBKugel</text><text fill="#000000" font-family="sans-serif" font-size="14" lengthAdjust="spacing" textLength="147" x="488" y="1352.9082">+Einlochen(k MBKugel)</text><text fill="#000000" font-family="sans-serif" font-size="14" lengthAdjust="spacing" textLength="226" x="488" y="1370.5176">+GibEingelochteKugeln() []MBKugel</text><text fill="#000000" font-family="sans-serif" font-size="14" lengthAdjust="spacing" textLength="202" x="488" y="1388.127">+GibGroesse() (float64, float64)</text><text fill="#000000" font-family="sans-serif" font-size="14" lengthAdjust="spacing" textLength="174" x="488" y="1405.7363">+GibTaschen() []MBTasche</text><text fill="#000000" font-family="sans-serif" font-size="14" lengthAdjust="spacing" textLength="120" x="488" y="1423.3457">+IstStillstand() bool</text><text fill="#000000" font-family="sans-serif" font-size="14" lengthAdjust="spacing" textLength="118" x="488" y="1440.9551">+GibTreffer() uint8</text><text fill="#000000" font-family="sans-serif" font-size="14" lengthAdjust="spacing" textLength="148" x="488" y="1458.5645">+GibStrafpunkte() uint8</text><text fill="#000000" font-family="sans-serif" font-size="14" lengthAdjust="spacing" textLength="155" x="488" y="1476.1738">+ReduziereStrafpunkte()</text></g><!--class quiz--><g id="elem_quiz"><rect codeLine="146" fill="#FFFFFF" height="136.0469" id="quiz" rx="2.5" ry="2.5" style="stroke:#000000;stroke-width:0.5;" width="210" x="237" y="968.5"/><ellipse cx="325.25" cy="984.5" fill="#FFFFFF" rx="11" ry="11" style="stroke:#181818;stroke-width:1.0;"/><path d="M323.3594,989.0625 Q323.1406,989.3281 323,989.4063 Q322.8594,989.4844 322.6719,989.4844 Q322.2813,989.4844 322.0391,989.2188 Q321.7969,988.9531 321.7969,988.3594 L321.7969,987.2031 Q321.7969,986.5938 322.0391,986.3359 Q322.2813,986.0781 322.6719,986.0781 Q322.9688,986.0781 323.1719,986.2344 Q323.375,986.3906 323.4844,986.7578 Q323.5938,987.125 323.7031,987.2656 Q323.9531,987.5156 324.5625,987.7813 Q325.1719,988.0469 325.9063,988.0469 Q327.0469,988.0469 327.7656,987.5156 Q328.2344,987.1875 328.2344,986.7188 Q328.2344,986.4063 328.0156,986.125 Q327.7969,985.8438 327.2813,985.6719 Q326.9531,985.5469 325.7969,985.3281 Q324.4063,985.0625 323.6875,984.7031 Q322.9688,984.3438 322.5547,983.6797 Q322.1406,983.0156 322.1406,982.2344 Q322.1406,981.0156 323.1641,980.1016 Q324.1875,979.1875 325.8281,979.1875 Q326.4844,979.1875 327.0391,979.3281 Q327.5938,979.4688 328.0625,979.7656 Q328.3906,979.4531 328.7188,979.4531 Q329.0938,979.4531 329.3281,979.7109 Q329.5625,979.9688 329.5625,980.5781 L329.5625,981.8594 Q329.5625,982.4688 329.3281,982.7266 Q329.0938,982.9844 328.7188,982.9844 Q328.4063,982.9844 328.1719,982.7969 Q327.9844,982.6563 327.8984,982.2344 Q327.8125,981.8125 327.6719,981.625 Q327.4219,981.3125 326.9453,981.1016 Q326.4688,980.8906 325.8281,980.8906 Q324.9063,980.8906 324.375,981.3125 Q323.8438,981.7344 323.8438,982.2031 Q323.8438,982.5156 324.0625,982.8125 Q324.2813,983.1094 324.7031,983.2813 Q324.9844,983.3906 326.2891,983.6484 Q327.5938,983.9063 328.2969,984.2109 Q329,984.5156 329.4688,985.1719 Q329.9375,985.8281 329.9375,986.7344 Q329.9375,988 329.0469,988.75 Q327.8594,989.75 326.0313,989.75 Q325.3281,989.75 324.6641,989.5781 Q324,989.4063 323.3594,989.0625 Z " fill="#000000"/><text fill="#000000" font-family="sans-serif" font-size="14" lengthAdjust="spacing" textLength="25" x="345.75" y="990.2285">quiz</text><line style="stroke:#000000;stroke-width:0.5;" x1="238" x2="446" y1="1000.5" y2="1000.5"/><text fill="#000000" font-family="sans-serif" font-size="14" lengthAdjust="spacing" textLength="124" x="243" y="1019.0332">-fragen []QuizFrage</text><text fill="#000000" font-family="sans-serif" font-size="14" lengthAdjust="spacing" textLength="124" x="243" y="1036.6426">-aktuelle QuizFrage</text><line style="stroke:#000000;stroke-width:0.5;" x1="238" x2="446" y1="1043.7188" y2="1043.7188"/><text fill="#000000" font-family="sans-serif" font-size="14" lengthAdjust="spacing" textLength="115" x="243" y="1062.252">+NaechsteFrage()</text><text fill="#000000" font-family="sans-serif" font-size="14" lengthAdjust="spacing" textLength="198" x="243" y="1079.8613">+GibAktuelleFrage() QuizFrage</text><text fill="#000000" font-family="sans-serif" font-size="14" lengthAdjust="spacing" textLength="87" x="243" y="1097.4707">+Antwort(i int)</text></g><!--class quizfrage--><g id="elem_quizfrage"><rect codeLine="155" fill="#FFFFFF" height="171.2656" id="quizfrage" rx="2.5" ry="2.5" style="stroke:#000000;stroke-width:0.5;" width="179" x="22.5" y="951"/><ellipse cx="78.75" cy="967" fill="#FFFFFF" rx="11" ry="11" style="stroke:#181818;stroke-width:1.0;"/><path d="M76.8594,971.5625 Q76.6406,971.8281 76.5,971.9063 Q76.3594,971.9844 76.1719,971.9844 Q75.7813,971.9844 75.5391,971.7188 Q75.2969,971.4531 75.2969,970.8594 L75.2969,969.7031 Q75.2969,969.0938 75.5391,968.8359 Q75.7813,968.5781 76.1719,968.5781 Q76.4688,968.5781 76.6719,968.7344 Q76.875,968.8906 76.9844,969.2578 Q77.0938,969.625 77.2031,969.7656 Q77.4531,970.0156 78.0625,970.2813 Q78.6719,970.5469 79.4063,970.5469 Q80.5469,970.5469 81.2656,970.0156 Q81.7344,969.6875 81.7344,969.2188 Q81.7344,968.9063 81.5156,968.625 Q81.2969,968.3438 80.7813,968.1719 Q80.4531,968.0469 79.2969,967.8281 Q77.9063,967.5625 77.1875,967.2031 Q76.4688,966.8438 76.0547,966.1797 Q75.6406,965.5156 75.6406,964.7344 Q75.6406,963.5156 76.6641,962.6016 Q77.6875,961.6875 79.3281,961.6875 Q79.9844,961.6875 80.5391,961.8281 Q81.0938,961.9688 81.5625,962.2656 Q81.8906,961.9531 82.2188,961.9531 Q82.5938,961.9531 82.8281,962.2109 Q83.0625,962.4688 83.0625,963.0781 L83.0625,964.3594 Q83.0625,964.9688 82.8281,965.2266 Q82.5938,965.4844 82.2188,965.4844 Q81.9063,965.4844 81.6719,965.2969 Q81.4844,965.1563 81.3984,964.7344 Q81.3125,964.3125 81.1719,964.125 Q80.9219,963.8125 80.4453,963.6016 Q79.9688,963.3906 79.3281,963.3906 Q78.4063,963.3906 77.875,963.8125 Q77.3438,964.2344 77.3438,964.7031 Q77.3438,965.0156 77.5625,965.3125 Q77.7813,965.6094 78.2031,965.7813 Q78.4844,965.8906 79.7891,966.1484 Q81.0938,966.4063 81.7969,966.7109 Q82.5,967.0156 82.9688,967.6719 Q83.4375,968.3281 83.4375,969.2344 Q83.4375,970.5 82.5469,971.25 Q81.3594,972.25 79.5313,972.25 Q78.8281,972.25 78.1641,972.0781 Q77.5,971.9063 76.8594,971.5625 Z " fill="#000000"/><text fill="#000000" font-family="sans-serif" font-size="14" lengthAdjust="spacing" textLength="58" x="99.25" y="972.7285">quizfrage</text><line style="stroke:#000000;stroke-width:0.5;" x1="23.5" x2="200.5" y1="983" y2="983"/><text fill="#000000" font-family="sans-serif" font-size="14" lengthAdjust="spacing" textLength="77" x="28.5" y="1001.5332">-frage string</text><text fill="#000000" font-family="sans-serif" font-size="14" lengthAdjust="spacing" textLength="62" x="28.5" y="1019.1426">-richtig int</text><text fill="#000000" font-family="sans-serif" font-size="14" lengthAdjust="spacing" textLength="114" x="28.5" y="1036.752">-antworten []string</text><line style="stroke:#000000;stroke-width:0.5;" x1="23.5" x2="200.5" y1="1043.8281" y2="1043.8281"/><text fill="#000000" font-family="sans-serif" font-size="14" lengthAdjust="spacing" textLength="117" x="28.5" y="1062.3613">+GibFrage() string</text><text fill="#000000" font-family="sans-serif" font-size="14" lengthAdjust="spacing" textLength="150" x="28.5" y="1079.9707">+GibAntworten() []string</text><text fill="#000000" font-family="sans-serif" font-size="14" lengthAdjust="spacing" textLength="99" x="28.5" y="1097.5801">+Gewaehlt(i int)</text><text fill="#000000" font-family="sans-serif" font-size="14" lengthAdjust="spacing" textLength="167" x="28.5" y="1115.1895">+RichtigBeantwortet() bool</text></g><!--class tasche--><g id="elem_tasche"><rect codeLine="166" fill="#FFFFFF" height="118.4375" id="tasche" rx="2.5" ry="2.5" style="stroke:#000000;stroke-width:0.5;" width="143" x="755.5" y="977.5"/><ellipse cx="801.75" cy="993.5" fill="#FFFFFF" rx="11" ry="11" style="stroke:#181818;stroke-width:1.0;"/><path d="M799.8594,998.0625 Q799.6406,998.3281 799.5,998.4063 Q799.3594,998.4844 799.1719,998.4844 Q798.7813,998.4844 798.5391,998.2188 Q798.2969,997.9531 798.2969,997.3594 L798.2969,996.2031 Q798.2969,995.5938 798.5391,995.3359 Q798.7813,995.0781 799.1719,995.0781 Q799.4688,995.0781 799.6719,995.2344 Q799.875,995.3906 799.9844,995.7578 Q800.0938,996.125 800.2031,996.2656 Q800.4531,996.5156 801.0625,996.7813 Q801.6719,997.0469 802.4063,997.0469 Q803.5469,997.0469 804.2656,996.5156 Q804.7344,996.1875 804.7344,995.7188 Q804.7344,995.4063 804.5156,995.125 Q804.2969,994.8438 803.7813,994.6719 Q803.4531,994.5469 802.2969,994.3281 Q800.9063,994.0625 800.1875,993.7031 Q799.4688,993.3438 799.0547,992.6797 Q798.6406,992.0156 798.6406,991.2344 Q798.6406,990.0156 799.6641,989.1016 Q800.6875,988.1875 802.3281,988.1875 Q802.9844,988.1875 803.5391,988.3281 Q804.0938,988.4688 804.5625,988.7656 Q804.8906,988.4531 805.2188,988.4531 Q805.5938,988.4531 805.8281,988.7109 Q806.0625,988.9688 806.0625,989.5781 L806.0625,990.8594 Q806.0625,991.4688 805.8281,991.7266 Q805.5938,991.9844 805.2188,991.9844 Q804.9063,991.9844 804.6719,991.7969 Q804.4844,991.6563 804.3984,991.2344 Q804.3125,990.8125 804.1719,990.625 Q803.9219,990.3125 803.4453,990.1016 Q802.9688,989.8906 802.3281,989.8906 Q801.4063,989.8906 800.875,990.3125 Q800.3438,990.7344 800.3438,991.2031 Q800.3438,991.5156 800.5625,991.8125 Q800.7813,992.1094 801.2031,992.2813 Q801.4844,992.3906 802.7891,992.6484 Q804.0938,992.9063 804.7969,993.2109 Q805.5,993.5156 805.9688,994.1719 Q806.4375,994.8281 806.4375,995.7344 Q806.4375,997 805.5469,997.75 Q804.3594,998.75 802.5313,998.75 Q801.8281,998.75 801.1641,998.5781 Q800.5,998.4063 799.8594,998.0625 Z " fill="#000000"/><text fill="#000000" font-family="sans-serif" font-size="14" lengthAdjust="spacing" textLength="42" x="822.25" y="999.2285">tasche</text><line style="stroke:#000000;stroke-width:0.5;" x1="756.5" x2="897.5" y1="1009.5" y2="1009.5"/><text fill="#000000" font-family="sans-serif" font-size="14" lengthAdjust="spacing" textLength="86" x="761.5" y="1028.0332">-pos hilf.Vec2</text><text fill="#000000" font-family="sans-serif" font-size="14" lengthAdjust="spacing" textLength="57" x="761.5" y="1045.6426">-r float64</text><line style="stroke:#000000;stroke-width:0.5;" x1="756.5" x2="897.5" y1="1052.7188" y2="1052.7188"/><text fill="#000000" font-family="sans-serif" font-size="14" lengthAdjust="spacing" textLength="122" x="761.5" y="1071.252">+GibPos() hilf.Vec2</text><text fill="#000000" font-family="sans-serif" font-size="14" lengthAdjust="spacing" textLength="131" x="761.5" y="1088.8613">+GibRadius() float64</text></g><!--reverse link MBKugel to mbkugel--><g id="link_MBKugel_mbkugel"><path codeLine="176" d="M1109,433.67 C1109,549.35 1109,703.07 1109,836.45 " fill="none" id="MBKugel-backto-mbkugel" style="stroke:#000000;stroke-width:1.0;"/><polygon fill="none" points="1109,415.67,1103,433.67,1115,433.67,1109,415.67" style="stroke:#000000;stroke-width:1.0;"/><text fill="#000000" font-family="sans-serif" font-size="13" lengthAdjust="spacing" textLength="78" x="1029.4766" y="825.8214">implementiert</text></g><!--reverse link MiniBillardSpiel to mbspiel--><g id="link_MiniBillardSpiel_mbspiel"><path codeLine="177" d="M601,548.02 C601,567.55 601,569.62 601,589.99 " fill="none" id="MiniBillardSpiel-backto-mbspiel" style="stroke:#000000;stroke-width:1.0;"/><polygon fill="none" points="601,530.02,595,548.02,607,548.02,601,530.02" style="stroke:#000000;stroke-width:1.0;"/><text fill="#000000" font-family="sans-serif" font-size="13" lengthAdjust="spacing" textLength="78" x="522.3297" y="579.6741">implementiert</text></g><!--reverse link Quiz to quiz--><g id="link_Quiz_quiz"><path codeLine="178" d="M342,345.51 C342,467.86 342,816.54 342,968.45 " fill="none" id="Quiz-backto-quiz" style="stroke:#000000;stroke-width:1.0;"/><polygon fill="none" points="342,327.51,336,345.51,348,345.51,342,327.51" style="stroke:#000000;stroke-width:1.0;"/><text fill="#000000" font-family="sans-serif" font-size="13" lengthAdjust="spacing" textLength="78" x="259.7344" y="957.6438">implementiert</text></g><!--reverse link QuizFrage to quizfrage--><g id="link_QuizFrage_quizfrage"><path codeLine="179" d="M112,363.11 C112,494.58 112,797.31 112,950.86 " fill="none" id="QuizFrage-backto-quizfrage" style="stroke:#000000;stroke-width:1.0;"/><polygon fill="none" points="112,345.11,106,363.11,118,363.11,112,345.11" style="stroke:#000000;stroke-width:1.0;"/><text fill="#000000" font-family="sans-serif" font-size="13" lengthAdjust="spacing" textLength="78" x="30.5266" y="940.0191">implementiert</text></g><!--reverse link MBTasche to tasche--><g id="link_MBTasche_tasche"><path codeLine="180" d="M827,345.51 C827,470.3 827,831.23 827,977.26 " fill="none" id="MBTasche-backto-tasche" style="stroke:#000000;stroke-width:1.0;"/><polygon fill="none" points="827,327.51,821,345.51,833,345.51,827,327.51" style="stroke:#000000;stroke-width:1.0;"/><text fill="#000000" font-family="sans-serif" font-size="13" lengthAdjust="spacing" textLength="78" x="744.2469" y="966.555">implementiert</text></g><!--SRC=[hLXRQoCt57xthn1-SkYEATjIMWWBdbwMaAQayPB0bZx8CyUs65cQIXeRtEv_xv7cgXbvdApj1nDqhjAvV9-ZCoPogkYE99nglJ16iLLXu2wHOicEGBwTQ5-5_3k9QP9jb2n4-hFaKf6NBJCmMIWb3-L1p55Z4akLWkgUV9a8kWETqmJ8JgR0EQ0xWXyc3AYrFN-8xuiDS79xIsPtxvph6_BXGwLdFz-G60wm0N4dPkI12HOppgbAbpa3VaCwUaimHxYNdBEKWJ8FpCng_sDwdmjLG9BDF9qxRNvb0YrbiZKeMad9E-AFRFMCfrl6r_DdIDxtlJ_FMfaVsyZSZuIk7gKUSsR59zoXyHDDMM7jrrnIyyFtllG5BuYo0b_yHrzoB_41KLIzqCH9lqm6zVb4TRA5qGADNk5KYiDGlTgEXbmQgWpC1c-Rzyv-fr2i0mNy3Cpm8eU5MBZCEg97MkZGERP4RJNqXx6r7kQZzGi378kjv21ywHDeC8C8IuCle0qLQR3foc9OJt_zNPUcLrPRp5gXhAmdNsI6xM5K2nlVjZs8yFYWatOqu5myLyhCddTwpHyazqvZ0-0KdXY6AyJcv6GrcfcYMFAwsOPA-FBuRRU3OJkO_r8eQfWKWy6grMvylLv55ApNeC8pjZIOIbw8pBLgN-49qkA86mXyDT_5HoMXxAnPTQ5tpStgcVNdwC-27KTdvmyAoLOR-4tHpJ0WDaXXLtKjjUxStwUZEV6v3L7xquWvOjEBASn1uZoNVJJKW0E5BSU2OLn_Y6nJi4qCjFBGZ7edsHB8TgkiGPfbCCs8v587kZ0YQh1S8tB0pTehQKIODXPO47e6lHuHQAQcas8L625e3J6EFGY7J1eRRSOfe0LfwhvIs8uGQEpQWOlOscVlEmCyllr3QAl7uVOCH0RGsCldRNXy7d3tLqPShnSk0Dr08-e6taureb_fZc0hOHiwLrdWq3My26pcY4Z5DlUdnNihXn45tQprGADhkuML7StWDEbcIGToDYN2XV2jEq4GpiekqaUtI0UZgHjazJir8aMUKbndPQwFIXvnuNg6I3Ki49Gmy0c_-W_HIWSW4P5ZHHfSHdZNhh5jjXhJ3PdFv_MblU5sQXNGPgLMVuggOY-fENxdq2ZqF8tAJp7bt5CQZAEBLkkT8LwdI5Q8a5sRU7q5WTY_aa7imnGYnFGyMc4kvXK1RZXE9bz1_CuJiJTHm-mAt72Ksxo5zxw2E5-VfWqM-pyryJgrrTUM0jdLrdAgLaWhtjKdN9TnjbQjubWpLf6eOFhhXicDtg5FuX1_IY9cVNVlLFEwbjLTdnIoIrYXQN_TVZqflEIdS9KH_XgULlyZgRVxbDp-5qLaodOvXnq8OydHjD6g-EoqOzTZQsSTEEpgEB1jSyR8DadFmjNm5MQkSxhfLdDynhIiq7JoFm00]--></g></svg>