<?xml version="1.0" encoding="us-ascii" standalone="no"?><svg xmlns="http://www.w3.org/2000/svg" xmlns:xlink="http://www.w3.org/1999/xlink" contentStyleType="text/css" height="1122px" preserveAspectRatio="none" style="width:1973px;height:1122px;background:#FFFFFF;" version="1.1" viewBox="0 0 1973 1122" width="1973px" zoomAndPan="magnify"><defs/><g><!--cluster views_controls--><g id="cluster_views_controls"><path d="M8.5,6 L116.5,6 A3.75,3.75 0 0 1 119,8.5 L126,29.6094 L1963.5,29.6094 A2.5,2.5 0 0 1 1966,32.1094 L1966,1112.5 A2.5,2.5 0 0 1 1963.5,1115 L8.5,1115 A2.5,2.5 0 0 1 6,1112.5 L6,8.5 A2.5,2.5 0 0 1 8.5,6 " fill="none" style="stroke:#000000;stroke-width:1.5;"/><line style="stroke:#000000;stroke-width:1.5;" x1="6" x2="126" y1="29.6094" y2="29.6094"/><text fill="#000000" font-family="sans-serif" font-size="14" font-weight="bold" lengthAdjust="spacing" textLength="107" x="10" y="22.5332">views_controls</text></g><!--class EingabeProzess--><g id="elem_EingabeProzess"><rect codeLine="8" fill="#FFFFFF" height="100.8281" id="EingabeProzess" rx="2.5" ry="2.5" style="stroke:#000000;stroke-width:0.5;" width="141" x="1724.5" y="112.5"/><ellipse cx="1742.2" cy="128.5" fill="#FFFFFF" rx="11" ry="11" style="stroke:#181818;stroke-width:1.0;"/><path d="M1743.1531,125.1406 L1743.1531,131.7969 L1744.8719,131.7969 Q1745.4813,131.7969 1745.7469,132.0313 Q1746.0125,132.2656 1746.0125,132.6563 Q1746.0125,133.0313 1745.7469,133.2656 Q1745.4813,133.5 1744.8719,133.5 L1739.7313,133.5 Q1739.1219,133.5 1738.8563,133.2656 Q1738.5906,133.0313 1738.5906,132.6406 Q1738.5906,132.2656 1738.8563,132.0313 Q1739.1219,131.7969 1739.7313,131.7969 L1741.45,131.7969 L1741.45,125.1406 L1739.7313,125.1406 Q1739.1219,125.1406 1738.8563,124.9063 Q1738.5906,124.6719 1738.5906,124.2813 Q1738.5906,123.9063 1738.8563,123.6719 Q1739.1219,123.4375 1739.7313,123.4375 L1744.8719,123.4375 Q1745.4813,123.4375 1745.7469,123.6719 Q1746.0125,123.9063 1746.0125,124.2813 Q1746.0125,124.6719 1745.7469,124.9063 Q1745.4813,125.1406 1744.8719,125.1406 L1743.1531,125.1406 Z " fill="#000000"/><text fill="#000000" font-family="sans-serif" font-size="14" font-style="italic" lengthAdjust="spacing" textLength="103" x="1756.8" y="134.2285">EingabeProzess</text><line style="stroke:#000000;stroke-width:0.5;" x1="1725.5" x2="1864.5" y1="144.5" y2="144.5"/><line style="stroke:#000000;stroke-width:0.5;" x1="1725.5" x2="1864.5" y1="152.5" y2="152.5"/><text fill="#000000" font-family="sans-serif" font-size="14" lengthAdjust="spacing" textLength="129" x="1730.5" y="171.0332">+StarteRate( uint64)</text><text fill="#000000" font-family="sans-serif" font-size="14" lengthAdjust="spacing" textLength="56" x="1730.5" y="188.6426">+Starte()</text><text fill="#000000" font-family="sans-serif" font-size="14" lengthAdjust="spacing" textLength="63" x="1730.5" y="206.252">+Stoppe()</text></g><!--class Farbe--><g id="elem_Farbe"><rect codeLine="14" fill="#FFFFFF" height="65.6094" id="Farbe" rx="2.5" ry="2.5" style="stroke:#000000;stroke-width:0.5;" width="183" x="1422.5" y="130"/><ellipse cx="1490.75" cy="146" fill="#FFFFFF" rx="11" ry="11" style="stroke:#181818;stroke-width:1.0;"/><path d="M1491.7031,142.6406 L1491.7031,149.2969 L1493.4219,149.2969 Q1494.0313,149.2969 1494.2969,149.5313 Q1494.5625,149.7656 1494.5625,150.1563 Q1494.5625,150.5313 1494.2969,150.7656 Q1494.0313,151 1493.4219,151 L1488.2813,151 Q1487.6719,151 1487.4063,150.7656 Q1487.1406,150.5313 1487.1406,150.1406 Q1487.1406,149.7656 1487.4063,149.5313 Q1487.6719,149.2969 1488.2813,149.2969 L1490,149.2969 L1490,142.6406 L1488.2813,142.6406 Q1487.6719,142.6406 1487.4063,142.4063 Q1487.1406,142.1719 1487.1406,141.7813 Q1487.1406,141.4063 1487.4063,141.1719 Q1487.6719,140.9375 1488.2813,140.9375 L1493.4219,140.9375 Q1494.0313,140.9375 1494.2969,141.1719 Q1494.5625,141.4063 1494.5625,141.7813 Q1494.5625,142.1719 1494.2969,142.4063 Q1494.0313,142.6406 1493.4219,142.6406 L1491.7031,142.6406 Z " fill="#000000"/><text fill="#000000" font-family="sans-serif" font-size="14" font-style="italic" lengthAdjust="spacing" textLength="38" x="1511.25" y="151.7285">Farbe</text><line style="stroke:#000000;stroke-width:0.5;" x1="1423.5" x2="1604.5" y1="162" y2="162"/><line style="stroke:#000000;stroke-width:0.5;" x1="1423.5" x2="1604.5" y1="170" y2="170"/><text fill="#000000" font-family="sans-serif" font-size="14" lengthAdjust="spacing" textLength="171" x="1428.5" y="188.5332">+RGB() (uint8, uint8, uint8)</text></g><!--class FensterZeichner--><g id="elem_FensterZeichner"><rect codeLine="18" fill="#FFFFFF" height="153.6563" id="FensterZeichner" rx="2.5" ry="2.5" style="stroke:#000000;stroke-width:0.5;" width="320" x="1045" y="86"/><ellipse cx="1148.25" cy="102" fill="#FFFFFF" rx="11" ry="11" style="stroke:#181818;stroke-width:1.0;"/><path d="M1149.2031,98.6406 L1149.2031,105.2969 L1150.9219,105.2969 Q1151.5313,105.2969 1151.7969,105.5313 Q1152.0625,105.7656 1152.0625,106.1563 Q1152.0625,106.5313 1151.7969,106.7656 Q1151.5313,107 1150.9219,107 L1145.7813,107 Q1145.1719,107 1144.9063,106.7656 Q1144.6406,106.5313 1144.6406,106.1406 Q1144.6406,105.7656 1144.9063,105.5313 Q1145.1719,105.2969 1145.7813,105.2969 L1147.5,105.2969 L1147.5,98.6406 L1145.7813,98.6406 Q1145.1719,98.6406 1144.9063,98.4063 Q1144.6406,98.1719 1144.6406,97.7813 Q1144.6406,97.4063 1144.9063,97.1719 Q1145.1719,96.9375 1145.7813,96.9375 L1150.9219,96.9375 Q1151.5313,96.9375 1151.7969,97.1719 Q1152.0625,97.4063 1152.0625,97.7813 Q1152.0625,98.1719 1151.7969,98.4063 Q1151.5313,98.6406 1150.9219,98.6406 L1149.2031,98.6406 Z " fill="#000000"/><text fill="#000000" font-family="sans-serif" font-size="14" font-style="italic" lengthAdjust="spacing" textLength="105" x="1168.75" y="107.7285">FensterZeichner</text><line style="stroke:#000000;stroke-width:0.5;" x1="1046" x2="1364" y1="118" y2="118"/><line style="stroke:#000000;stroke-width:0.5;" x1="1046" x2="1364" y1="126" y2="126"/><text fill="#000000" font-family="sans-serif" font-size="14" lengthAdjust="spacing" textLength="56" x="1051" y="144.5332">+Starte()</text><text fill="#000000" font-family="sans-serif" font-size="14" lengthAdjust="spacing" textLength="63" x="1051" y="162.1426">+Stoppe()</text><text fill="#000000" font-family="sans-serif" font-size="14" lengthAdjust="spacing" textLength="96" x="1051" y="179.752">+ZeigeLayout()</text><text fill="#000000" font-family="sans-serif" font-size="14" lengthAdjust="spacing" textLength="147" x="1051" y="197.3613">+Ueberblende( Widget)</text><text fill="#000000" font-family="sans-serif" font-size="14" lengthAdjust="spacing" textLength="308" x="1051" y="214.9707">+UeberblendeText( string,  Farbe,  Farbe,  uint8)</text><text fill="#000000" font-family="sans-serif" font-size="14" lengthAdjust="spacing" textLength="123" x="1051" y="232.5801">+UeberblendeAus()</text></g><!--class KugelZeichner--><g id="elem_KugelZeichner"><rect codeLine="27" fill="#FFFFFF" height="136.0469" id="KugelZeichner" rx="2.5" ry="2.5" style="stroke:#000000;stroke-width:0.5;" width="236" x="22" y="963"/><ellipse cx="90.25" cy="979" fill="#FFFFFF" rx="11" ry="11" style="stroke:#181818;stroke-width:1.0;"/><path d="M88.3594,983.5625 Q88.1406,983.8281 88,983.9063 Q87.8594,983.9844 87.6719,983.9844 Q87.2813,983.9844 87.0391,983.7188 Q86.7969,983.4531 86.7969,982.8594 L86.7969,981.7031 Q86.7969,981.0938 87.0391,980.8359 Q87.2813,980.5781 87.6719,980.5781 Q87.9688,980.5781 88.1719,980.7344 Q88.375,980.8906 88.4844,981.2578 Q88.5938,981.625 88.7031,981.7656 Q88.9531,982.0156 89.5625,982.2813 Q90.1719,982.5469 90.9063,982.5469 Q92.0469,982.5469 92.7656,982.0156 Q93.2344,981.6875 93.2344,981.2188 Q93.2344,980.9063 93.0156,980.625 Q92.7969,980.3438 92.2813,980.1719 Q91.9531,980.0469 90.7969,979.8281 Q89.4063,979.5625 88.6875,979.2031 Q87.9688,978.8438 87.5547,978.1797 Q87.1406,977.5156 87.1406,976.7344 Q87.1406,975.5156 88.1641,974.6016 Q89.1875,973.6875 90.8281,973.6875 Q91.4844,973.6875 92.0391,973.8281 Q92.5938,973.9688 93.0625,974.2656 Q93.3906,973.9531 93.7188,973.9531 Q94.0938,973.9531 94.3281,974.2109 Q94.5625,974.4688 94.5625,975.0781 L94.5625,976.3594 Q94.5625,976.9688 94.3281,977.2266 Q94.0938,977.4844 93.7188,977.4844 Q93.4063,977.4844 93.1719,977.2969 Q92.9844,977.1563 92.8984,976.7344 Q92.8125,976.3125 92.6719,976.125 Q92.4219,975.8125 91.9453,975.6016 Q91.4688,975.3906 90.8281,975.3906 Q89.9063,975.3906 89.375,975.8125 Q88.8438,976.2344 88.8438,976.7031 Q88.8438,977.0156 89.0625,977.3125 Q89.2813,977.6094 89.7031,977.7813 Q89.9844,977.8906 91.2891,978.1484 Q92.5938,978.4063 93.2969,978.7109 Q94,979.0156 94.4688,979.6719 Q94.9375,980.3281 94.9375,981.2344 Q94.9375,982.5 94.0469,983.25 Q92.8594,984.25 91.0313,984.25 Q90.3281,984.25 89.6641,984.0781 Q89,983.9063 88.3594,983.5625 Z " fill="#000000"/><text fill="#000000" font-family="sans-serif" font-size="14" lengthAdjust="spacing" textLength="91" x="110.75" y="984.7285">KugelZeichner</text><line style="stroke:#000000;stroke-width:0.5;" x1="23" x2="257" y1="995" y2="995"/><text fill="#000000" font-family="sans-serif" font-size="14" lengthAdjust="spacing" textLength="138" x="28" y="1013.5332">-kugelPalette *[]Farbe</text><line style="stroke:#000000;stroke-width:0.5;" x1="23" x2="257" y1="1020.6094" y2="1020.6094"/><text fill="#000000" font-family="sans-serif" font-size="14" lengthAdjust="spacing" textLength="175" x="28" y="1039.1426">+GibKugelPalette() *[]Farbe</text><text fill="#000000" font-family="sans-serif" font-size="14" lengthAdjust="spacing" textLength="183" x="28" y="1056.752">+SetzeStandardPoolPalette()</text><text fill="#000000" font-family="sans-serif" font-size="14" lengthAdjust="spacing" textLength="171" x="28" y="1074.3613">+SetzeEnglishPoolPalette()</text><text fill="#000000" font-family="sans-serif" font-size="14" lengthAdjust="spacing" textLength="224" x="28" y="1091.9707">+ZeichneKugel(k modelle.MBKugel)</text></g><!--class MBSpielView--><g id="elem_MBSpielView"><rect codeLine="36" fill="#FFFFFF" height="48" id="MBSpielView" rx="2.5" ry="2.5" style="stroke:#000000;stroke-width:0.5;" width="113" x="22.5" y="599.5"/><ellipse cx="37.5" cy="615.5" fill="#FFFFFF" rx="11" ry="11" style="stroke:#181818;stroke-width:1.0;"/><path d="M38.4531,612.1406 L38.4531,618.7969 L40.1719,618.7969 Q40.7813,618.7969 41.0469,619.0313 Q41.3125,619.2656 41.3125,619.6563 Q41.3125,620.0313 41.0469,620.2656 Q40.7813,620.5 40.1719,620.5 L35.0313,620.5 Q34.4219,620.5 34.1563,620.2656 Q33.8906,620.0313 33.8906,619.6406 Q33.8906,619.2656 34.1563,619.0313 Q34.4219,618.7969 35.0313,618.7969 L36.75,618.7969 L36.75,612.1406 L35.0313,612.1406 Q34.4219,612.1406 34.1563,611.9063 Q33.8906,611.6719 33.8906,611.2813 Q33.8906,610.9063 34.1563,610.6719 Q34.4219,610.4375 35.0313,610.4375 L40.1719,610.4375 Q40.7813,610.4375 41.0469,610.6719 Q41.3125,610.9063 41.3125,611.2813 Q41.3125,611.6719 41.0469,611.9063 Q40.7813,612.1406 40.1719,612.1406 L38.4531,612.1406 Z " fill="#000000"/><text fill="#000000" font-family="sans-serif" font-size="14" font-style="italic" lengthAdjust="spacing" textLength="81" x="51.5" y="621.2285">MBSpielView</text><line style="stroke:#000000;stroke-width:0.5;" x1="23.5" x2="134.5" y1="631.5" y2="631.5"/><line style="stroke:#000000;stroke-width:0.5;" x1="23.5" x2="134.5" y1="639.5" y2="639.5"/></g><!--class Schreiber--><g id="elem_Schreiber"><rect codeLine="38" fill="#FFFFFF" height="100.8281" id="Schreiber" rx="2.5" ry="2.5" style="stroke:#000000;stroke-width:0.5;" width="262" x="726" y="112.5"/><ellipse cx="822.25" cy="128.5" fill="#FFFFFF" rx="11" ry="11" style="stroke:#181818;stroke-width:1.0;"/><path d="M823.2031,125.1406 L823.2031,131.7969 L824.9219,131.7969 Q825.5313,131.7969 825.7969,132.0313 Q826.0625,132.2656 826.0625,132.6563 Q826.0625,133.0313 825.7969,133.2656 Q825.5313,133.5 824.9219,133.5 L819.7813,133.5 Q819.1719,133.5 818.9063,133.2656 Q818.6406,133.0313 818.6406,132.6406 Q818.6406,132.2656 818.9063,132.0313 Q819.1719,131.7969 819.7813,131.7969 L821.5,131.7969 L821.5,125.1406 L819.7813,125.1406 Q819.1719,125.1406 818.9063,124.9063 Q818.6406,124.6719 818.6406,124.2813 Q818.6406,123.9063 818.9063,123.6719 Q819.1719,123.4375 819.7813,123.4375 L824.9219,123.4375 Q825.5313,123.4375 825.7969,123.6719 Q826.0625,123.9063 826.0625,124.2813 Q826.0625,124.6719 825.7969,124.9063 Q825.5313,125.1406 824.9219,125.1406 L823.2031,125.1406 Z " fill="#000000"/><text fill="#000000" font-family="sans-serif" font-size="14" font-style="italic" lengthAdjust="spacing" textLength="61" x="842.75" y="134.2285">Schreiber</text><line style="stroke:#000000;stroke-width:0.5;" x1="727" x2="987" y1="144.5" y2="144.5"/><line style="stroke:#000000;stroke-width:0.5;" x1="727" x2="987" y1="152.5" y2="152.5"/><text fill="#000000" font-family="sans-serif" font-size="14" lengthAdjust="spacing" textLength="163" x="732" y="171.0332">+SetzeSchriftgroesse( int)</text><text fill="#000000" font-family="sans-serif" font-size="14" lengthAdjust="spacing" textLength="150" x="732" y="188.6426">+GibSchriftgroesse() int</text><text fill="#000000" font-family="sans-serif" font-size="14" lengthAdjust="spacing" textLength="250" x="732" y="206.252">+Schreibe(x uint16, y uint16, text string)</text></g><!--class Widget--><g id="elem_Widget"><rect codeLine="44" fill="#FFFFFF" height="241.7031" id="Widget" rx="2.5" ry="2.5" style="stroke:#000000;stroke-width:0.5;" width="338" x="142" y="42"/><ellipse cx="284.25" cy="58" fill="#FFFFFF" rx="11" ry="11" style="stroke:#181818;stroke-width:1.0;"/><path d="M285.2031,54.6406 L285.2031,61.2969 L286.9219,61.2969 Q287.5313,61.2969 287.7969,61.5313 Q288.0625,61.7656 288.0625,62.1563 Q288.0625,62.5313 287.7969,62.7656 Q287.5313,63 286.9219,63 L281.7813,63 Q281.1719,63 280.9063,62.7656 Q280.6406,62.5313 280.6406,62.1406 Q280.6406,61.7656 280.9063,61.5313 Q281.1719,61.2969 281.7813,61.2969 L283.5,61.2969 L283.5,54.6406 L281.7813,54.6406 Q281.1719,54.6406 280.9063,54.4063 Q280.6406,54.1719 280.6406,53.7813 Q280.6406,53.4063 280.9063,53.1719 Q281.1719,52.9375 281.7813,52.9375 L286.9219,52.9375 Q287.5313,52.9375 287.7969,53.1719 Q288.0625,53.4063 288.0625,53.7813 Q288.0625,54.1719 287.7969,54.4063 Q287.5313,54.6406 286.9219,54.6406 L285.2031,54.6406 Z " fill="#000000"/><text fill="#000000" font-family="sans-serif" font-size="14" font-style="italic" lengthAdjust="spacing" textLength="45" x="304.75" y="63.7285">Widget</text><line style="stroke:#000000;stroke-width:0.5;" x1="143" x2="479" y1="74" y2="74"/><line style="stroke:#000000;stroke-width:0.5;" x1="143" x2="479" y1="82" y2="82"/><text fill="#000000" font-family="sans-serif" font-size="14" lengthAdjust="spacing" textLength="68" x="148" y="100.5332">+Zeichne()</text><text fill="#000000" font-family="sans-serif" font-size="14" lengthAdjust="spacing" textLength="102" x="148" y="118.1426">+ZeichneRand()</text><text fill="#000000" font-family="sans-serif" font-size="14" lengthAdjust="spacing" textLength="111" x="148" y="135.752">+ZeichneLayout()</text><text fill="#000000" font-family="sans-serif" font-size="14" lengthAdjust="spacing" textLength="326" x="148" y="153.3613">+SetzeKoordinaten( uint16,  uint16,  uint16,  uint16)</text><text fill="#000000" font-family="sans-serif" font-size="14" lengthAdjust="spacing" textLength="191" x="148" y="170.9707">+SetzeFarben( Farbe,  Farbe)</text><text fill="#000000" font-family="sans-serif" font-size="14" lengthAdjust="spacing" textLength="168" x="148" y="188.5801">+SetzeTransparenz( uint8)</text><text fill="#000000" font-family="sans-serif" font-size="14" lengthAdjust="spacing" textLength="158" x="148" y="206.1895">+SetzeEckradius( uint16)</text><text fill="#000000" font-family="sans-serif" font-size="14" lengthAdjust="spacing" textLength="245" x="148" y="223.7988">+GibStartkoordinaten() (uint16, uint16)</text><text fill="#000000" font-family="sans-serif" font-size="14" lengthAdjust="spacing" textLength="194" x="148" y="241.4082">+GibGroesse() (uint16, uint16)</text><text fill="#000000" font-family="sans-serif" font-size="14" lengthAdjust="spacing" textLength="291" x="148" y="259.0176">+ImFenster(mausX uint16, mausY uint16) bool</text><text fill="#000000" font-family="sans-serif" font-size="14" lengthAdjust="spacing" textLength="278" x="148" y="276.627">+MausklickBei(mausX uint16, mausY uint16)</text></g><!--class bpMausProzess--><g id="elem_bpMausProzess"><rect codeLine="58" fill="#FFFFFF" height="188.875" id="bpMausProzess" rx="2.5" ry="2.5" style="stroke:#000000;stroke-width:0.5;" width="309" x="1640.5" y="529"/><ellipse cx="1740.75" cy="545" fill="#FFFFFF" rx="11" ry="11" style="stroke:#181818;stroke-width:1.0;"/><path d="M1738.8594,549.5625 Q1738.6406,549.8281 1738.5,549.9063 Q1738.3594,549.9844 1738.1719,549.9844 Q1737.7813,549.9844 1737.5391,549.7188 Q1737.2969,549.4531 1737.2969,548.8594 L1737.2969,547.7031 Q1737.2969,547.0938 1737.5391,546.8359 Q1737.7813,546.5781 1738.1719,546.5781 Q1738.4688,546.5781 1738.6719,546.7344 Q1738.875,546.8906 1738.9844,547.2578 Q1739.0938,547.625 1739.2031,547.7656 Q1739.4531,548.0156 1740.0625,548.2813 Q1740.6719,548.5469 1741.4063,548.5469 Q1742.5469,548.5469 1743.2656,548.0156 Q1743.7344,547.6875 1743.7344,547.2188 Q1743.7344,546.9063 1743.5156,546.625 Q1743.2969,546.3438 1742.7813,546.1719 Q1742.4531,546.0469 1741.2969,545.8281 Q1739.9063,545.5625 1739.1875,545.2031 Q1738.4688,544.8438 1738.0547,544.1797 Q1737.6406,543.5156 1737.6406,542.7344 Q1737.6406,541.5156 1738.6641,540.6016 Q1739.6875,539.6875 1741.3281,539.6875 Q1741.9844,539.6875 1742.5391,539.8281 Q1743.0938,539.9688 1743.5625,540.2656 Q1743.8906,539.9531 1744.2188,539.9531 Q1744.5938,539.9531 1744.8281,540.2109 Q1745.0625,540.4688 1745.0625,541.0781 L1745.0625,542.3594 Q1745.0625,542.9688 1744.8281,543.2266 Q1744.5938,543.4844 1744.2188,543.4844 Q1743.9063,543.4844 1743.6719,543.2969 Q1743.4844,543.1563 1743.3984,542.7344 Q1743.3125,542.3125 1743.1719,542.125 Q1742.9219,541.8125 1742.4453,541.6016 Q1741.9688,541.3906 1741.3281,541.3906 Q1740.4063,541.3906 1739.875,541.8125 Q1739.3438,542.2344 1739.3438,542.7031 Q1739.3438,543.0156 1739.5625,543.3125 Q1739.7813,543.6094 1740.2031,543.7813 Q1740.4844,543.8906 1741.7891,544.1484 Q1743.0938,544.4063 1743.7969,544.7109 Q1744.5,545.0156 1744.9688,545.6719 Q1745.4375,546.3281 1745.4375,547.2344 Q1745.4375,548.5 1744.5469,549.25 Q1743.3594,550.25 1741.5313,550.25 Q1740.8281,550.25 1740.1641,550.0781 Q1739.5,549.9063 1738.8594,549.5625 Z " fill="#000000"/><text fill="#000000" font-family="sans-serif" font-size="14" lengthAdjust="spacing" textLength="100" x="1761.25" y="550.7285">bpMausProzess</text><line style="stroke:#000000;stroke-width:0.5;" x1="1641.5" x2="1948.5" y1="561" y2="561"/><text fill="#000000" font-family="sans-serif" font-size="14" lengthAdjust="spacing" textLength="171" x="1646.5" y="579.5332">-steuerProzess hilf.Prozess</text><line style="stroke:#000000;stroke-width:0.5;" x1="1641.5" x2="1948.5" y1="586.6094" y2="586.6094"/><text fill="#000000" font-family="sans-serif" font-size="14" lengthAdjust="spacing" textLength="100" x="1646.5" y="605.1426">-steuerFunktion</text><text fill="#0000FF" font-family="sans-serif" font-size="14" lengthAdjust="spacing" textLength="27" x="1750.5" y="605.1426">func</text><text fill="#000000" font-family="sans-serif" font-size="14" lengthAdjust="spacing" textLength="166" x="1777.5" y="605.1426">(uint8, int8, uint16, uint16)</text><text fill="#000000" font-family="sans-serif" font-size="14" lengthAdjust="spacing" textLength="4" x="1646.5" y="622.752">&#160;</text><text fill="#000000" font-family="sans-serif" font-size="14" lengthAdjust="spacing" textLength="115" x="1646.5" y="640.3613">-mausSteuerung()</text><text fill="#000000" font-family="sans-serif" font-size="14" lengthAdjust="spacing" textLength="4" x="1646.5" y="657.9707">&#160;</text><text fill="#000000" font-family="sans-serif" font-size="14" lengthAdjust="spacing" textLength="154" x="1646.5" y="675.5801">+StarteRate(rate uint64)</text><text fill="#000000" font-family="sans-serif" font-size="14" lengthAdjust="spacing" textLength="56" x="1646.5" y="693.1895">+Starte()</text><text fill="#000000" font-family="sans-serif" font-size="14" lengthAdjust="spacing" textLength="63" x="1646.5" y="710.7988">+Stoppe()</text></g><!--class button--><g id="elem_button"><rect codeLine="69" fill="#FFFFFF" height="83.2188" id="button" rx="2.5" ry="2.5" style="stroke:#000000;stroke-width:0.5;" width="80" x="293" y="989.5"/><ellipse cx="311.6" cy="1005.5" fill="#FFFFFF" rx="11" ry="11" style="stroke:#181818;stroke-width:1.0;"/><path d="M309.7094,1010.0625 Q309.4906,1010.3281 309.35,1010.4063 Q309.2094,1010.4844 309.0219,1010.4844 Q308.6313,1010.4844 308.3891,1010.2188 Q308.1469,1009.9531 308.1469,1009.3594 L308.1469,1008.2031 Q308.1469,1007.5938 308.3891,1007.3359 Q308.6313,1007.0781 309.0219,1007.0781 Q309.3188,1007.0781 309.5219,1007.2344 Q309.725,1007.3906 309.8344,1007.7578 Q309.9438,1008.125 310.0531,1008.2656 Q310.3031,1008.5156 310.9125,1008.7813 Q311.5219,1009.0469 312.2563,1009.0469 Q313.3969,1009.0469 314.1156,1008.5156 Q314.5844,1008.1875 314.5844,1007.7188 Q314.5844,1007.4063 314.3656,1007.125 Q314.1469,1006.8438 313.6313,1006.6719 Q313.3031,1006.5469 312.1469,1006.3281 Q310.7563,1006.0625 310.0375,1005.7031 Q309.3188,1005.3438 308.9047,1004.6797 Q308.4906,1004.0156 308.4906,1003.2344 Q308.4906,1002.0156 309.5141,1001.1016 Q310.5375,1000.1875 312.1781,1000.1875 Q312.8344,1000.1875 313.3891,1000.3281 Q313.9438,1000.4688 314.4125,1000.7656 Q314.7406,1000.4531 315.0688,1000.4531 Q315.4438,1000.4531 315.6781,1000.7109 Q315.9125,1000.9688 315.9125,1001.5781 L315.9125,1002.8594 Q315.9125,1003.4688 315.6781,1003.7266 Q315.4438,1003.9844 315.0688,1003.9844 Q314.7563,1003.9844 314.5219,1003.7969 Q314.3344,1003.6563 314.2484,1003.2344 Q314.1625,1002.8125 314.0219,1002.625 Q313.7719,1002.3125 313.2953,1002.1016 Q312.8188,1001.8906 312.1781,1001.8906 Q311.2563,1001.8906 310.725,1002.3125 Q310.1938,1002.7344 310.1938,1003.2031 Q310.1938,1003.5156 310.4125,1003.8125 Q310.6313,1004.1094 311.0531,1004.2813 Q311.3344,1004.3906 312.6391,1004.6484 Q313.9438,1004.9063 314.6469,1005.2109 Q315.35,1005.5156 315.8188,1006.1719 Q316.2875,1006.8281 316.2875,1007.7344 Q316.2875,1009 315.3969,1009.75 Q314.2094,1010.75 312.3813,1010.75 Q311.6781,1010.75 311.0141,1010.5781 Q310.35,1010.4063 309.7094,1010.0625 Z " fill="#000000"/><text fill="#000000" font-family="sans-serif" font-size="14" lengthAdjust="spacing" textLength="40" x="326.4" y="1011.2285">button</text><line style="stroke:#000000;stroke-width:0.5;" x1="294" x2="372" y1="1021.5" y2="1021.5"/><text fill="#000000" font-family="sans-serif" font-size="14" lengthAdjust="spacing" textLength="66" x="299" y="1040.0332">-text string</text><line style="stroke:#000000;stroke-width:0.5;" x1="294" x2="372" y1="1047.1094" y2="1047.1094"/><text fill="#000000" font-family="sans-serif" font-size="14" lengthAdjust="spacing" textLength="68" x="299" y="1065.6426">+Zeichne()</text></g><!--class fzeichner--><g id="elem_fzeichner"><rect codeLine="75" fill="#FFFFFF" height="259.3125" id="fzeichner" rx="2.5" ry="2.5" style="stroke:#000000;stroke-width:0.5;" width="364" x="1023" y="494"/><ellipse cx="1172.25" cy="510" fill="#FFFFFF" rx="11" ry="11" style="stroke:#181818;stroke-width:1.0;"/><path d="M1170.3594,514.5625 Q1170.1406,514.8281 1170,514.9063 Q1169.8594,514.9844 1169.6719,514.9844 Q1169.2813,514.9844 1169.0391,514.7188 Q1168.7969,514.4531 1168.7969,513.8594 L1168.7969,512.7031 Q1168.7969,512.0938 1169.0391,511.8359 Q1169.2813,511.5781 1169.6719,511.5781 Q1169.9688,511.5781 1170.1719,511.7344 Q1170.375,511.8906 1170.4844,512.2578 Q1170.5938,512.625 1170.7031,512.7656 Q1170.9531,513.0156 1171.5625,513.2813 Q1172.1719,513.5469 1172.9063,513.5469 Q1174.0469,513.5469 1174.7656,513.0156 Q1175.2344,512.6875 1175.2344,512.2188 Q1175.2344,511.9063 1175.0156,511.625 Q1174.7969,511.3438 1174.2813,511.1719 Q1173.9531,511.0469 1172.7969,510.8281 Q1171.4063,510.5625 1170.6875,510.2031 Q1169.9688,509.8438 1169.5547,509.1797 Q1169.1406,508.5156 1169.1406,507.7344 Q1169.1406,506.5156 1170.1641,505.6016 Q1171.1875,504.6875 1172.8281,504.6875 Q1173.4844,504.6875 1174.0391,504.8281 Q1174.5938,504.9688 1175.0625,505.2656 Q1175.3906,504.9531 1175.7188,504.9531 Q1176.0938,504.9531 1176.3281,505.2109 Q1176.5625,505.4688 1176.5625,506.0781 L1176.5625,507.3594 Q1176.5625,507.9688 1176.3281,508.2266 Q1176.0938,508.4844 1175.7188,508.4844 Q1175.4063,508.4844 1175.1719,508.2969 Q1174.9844,508.1563 1174.8984,507.7344 Q1174.8125,507.3125 1174.6719,507.125 Q1174.4219,506.8125 1173.9453,506.6016 Q1173.4688,506.3906 1172.8281,506.3906 Q1171.9063,506.3906 1171.375,506.8125 Q1170.8438,507.2344 1170.8438,507.7031 Q1170.8438,508.0156 1171.0625,508.3125 Q1171.2813,508.6094 1171.7031,508.7813 Q1171.9844,508.8906 1173.2891,509.1484 Q1174.5938,509.4063 1175.2969,509.7109 Q1176,510.0156 1176.4688,510.6719 Q1176.9375,511.3281 1176.9375,512.2344 Q1176.9375,513.5 1176.0469,514.25 Q1174.8594,515.25 1173.0313,515.25 Q1172.3281,515.25 1171.6641,515.0781 Q1171,514.9063 1170.3594,514.5625 Z " fill="#000000"/><text fill="#000000" font-family="sans-serif" font-size="14" lengthAdjust="spacing" textLength="57" x="1192.75" y="515.7285">fzeichner</text><line style="stroke:#000000;stroke-width:0.5;" x1="1024" x2="1386" y1="526" y2="526"/><text fill="#000000" font-family="sans-serif" font-size="14" lengthAdjust="spacing" textLength="84" x="1029" y="544.5332">-breite uint16</text><text fill="#000000" font-family="sans-serif" font-size="14" lengthAdjust="spacing" textLength="108" x="1029" y="562.1426">-widgets []Widget</text><text fill="#000000" font-family="sans-serif" font-size="14" lengthAdjust="spacing" textLength="99" x="1029" y="579.752">-overlay Widget</text><text fill="#000000" font-family="sans-serif" font-size="14" lengthAdjust="spacing" textLength="130" x="1029" y="597.3613">-updater hilf.Prozess</text><text fill="#000000" font-family="sans-serif" font-size="14" lengthAdjust="spacing" textLength="125" x="1029" y="614.9707">-updaterLaeuft bool</text><text fill="#000000" font-family="sans-serif" font-size="14" lengthAdjust="spacing" textLength="73" x="1029" y="632.5801">-rate uint64</text><line style="stroke:#000000;stroke-width:0.5;" x1="1024" x2="1386" y1="639.6563" y2="639.6563"/><text fill="#000000" font-family="sans-serif" font-size="14" lengthAdjust="spacing" textLength="56" x="1029" y="658.1895">+Starte()</text><text fill="#000000" font-family="sans-serif" font-size="14" lengthAdjust="spacing" textLength="63" x="1029" y="675.7988">+Stoppe()</text><text fill="#000000" font-family="sans-serif" font-size="14" lengthAdjust="spacing" textLength="96" x="1029" y="693.4082">+ZeigeLayout()</text><text fill="#000000" font-family="sans-serif" font-size="14" lengthAdjust="spacing" textLength="151" x="1029" y="711.0176">+Ueberblende(f Widget)</text><text fill="#000000" font-family="sans-serif" font-size="14" lengthAdjust="spacing" textLength="352" x="1029" y="728.627">+UeberblendeText(t string, hg Farbe, vg Farbe, tr uint8)</text><text fill="#000000" font-family="sans-serif" font-size="14" lengthAdjust="spacing" textLength="123" x="1029" y="746.2363">+UeberblendeAus()</text></g><!--class infotext--><g id="elem_infotext"><rect codeLine="91" fill="#FFFFFF" height="83.2188" id="infotext" rx="2.5" ry="2.5" style="stroke:#000000;stroke-width:0.5;" width="80" x="408" y="989.5"/><ellipse cx="424.35" cy="1005.5" fill="#FFFFFF" rx="11" ry="11" style="stroke:#181818;stroke-width:1.0;"/><path d="M422.4594,1010.0625 Q422.2406,1010.3281 422.1,1010.4063 Q421.9594,1010.4844 421.7719,1010.4844 Q421.3813,1010.4844 421.1391,1010.2188 Q420.8969,1009.9531 420.8969,1009.3594 L420.8969,1008.2031 Q420.8969,1007.5938 421.1391,1007.3359 Q421.3813,1007.0781 421.7719,1007.0781 Q422.0688,1007.0781 422.2719,1007.2344 Q422.475,1007.3906 422.5844,1007.7578 Q422.6938,1008.125 422.8031,1008.2656 Q423.0531,1008.5156 423.6625,1008.7813 Q424.2719,1009.0469 425.0063,1009.0469 Q426.1469,1009.0469 426.8656,1008.5156 Q427.3344,1008.1875 427.3344,1007.7188 Q427.3344,1007.4063 427.1156,1007.125 Q426.8969,1006.8438 426.3813,1006.6719 Q426.0531,1006.5469 424.8969,1006.3281 Q423.5063,1006.0625 422.7875,1005.7031 Q422.0688,1005.3438 421.6547,1004.6797 Q421.2406,1004.0156 421.2406,1003.2344 Q421.2406,1002.0156 422.2641,1001.1016 Q423.2875,1000.1875 424.9281,1000.1875 Q425.5844,1000.1875 426.1391,1000.3281 Q426.6938,1000.4688 427.1625,1000.7656 Q427.4906,1000.4531 427.8188,1000.4531 Q428.1938,1000.4531 428.4281,1000.7109 Q428.6625,1000.9688 428.6625,1001.5781 L428.6625,1002.8594 Q428.6625,1003.4688 428.4281,1003.7266 Q428.1938,1003.9844 427.8188,1003.9844 Q427.5063,1003.9844 427.2719,1003.7969 Q427.0844,1003.6563 426.9984,1003.2344 Q426.9125,1002.8125 426.7719,1002.625 Q426.5219,1002.3125 426.0453,1002.1016 Q425.5688,1001.8906 424.9281,1001.8906 Q424.0063,1001.8906 423.475,1002.3125 Q422.9438,1002.7344 422.9438,1003.2031 Q422.9438,1003.5156 423.1625,1003.8125 Q423.3813,1004.1094 423.8031,1004.2813 Q424.0844,1004.3906 425.3891,1004.6484 Q426.6938,1004.9063 427.3969,1005.2109 Q428.1,1005.5156 428.5688,1006.1719 Q429.0375,1006.8281 429.0375,1007.7344 Q429.0375,1009 428.1469,1009.75 Q426.9594,1010.75 425.1313,1010.75 Q424.4281,1010.75 423.7641,1010.5781 Q423.1,1010.4063 422.4594,1010.0625 Z " fill="#000000"/><text fill="#000000" font-family="sans-serif" font-size="14" lengthAdjust="spacing" textLength="45" x="438.65" y="1011.2285">infotext</text><line style="stroke:#000000;stroke-width:0.5;" x1="409" x2="487" y1="1021.5" y2="1021.5"/><text fill="#000000" font-family="sans-serif" font-size="14" lengthAdjust="spacing" textLength="66" x="414" y="1040.0332">-text string</text><line style="stroke:#000000;stroke-width:0.5;" x1="409" x2="487" y1="1047.1094" y2="1047.1094"/><text fill="#000000" font-family="sans-serif" font-size="14" lengthAdjust="spacing" textLength="68" x="414" y="1065.6426">+Zeichne()</text></g><!--class miniBRestzeit--><g id="elem_miniBRestzeit"><rect codeLine="97" fill="#FFFFFF" height="83.2188" id="miniBRestzeit" rx="2.5" ry="2.5" style="stroke:#000000;stroke-width:0.5;" width="207" x="523.5" y="989.5"/><ellipse cx="580.75" cy="1005.5" fill="#FFFFFF" rx="11" ry="11" style="stroke:#181818;stroke-width:1.0;"/><path d="M578.8594,1010.0625 Q578.6406,1010.3281 578.5,1010.4063 Q578.3594,1010.4844 578.1719,1010.4844 Q577.7813,1010.4844 577.5391,1010.2188 Q577.2969,1009.9531 577.2969,1009.3594 L577.2969,1008.2031 Q577.2969,1007.5938 577.5391,1007.3359 Q577.7813,1007.0781 578.1719,1007.0781 Q578.4688,1007.0781 578.6719,1007.2344 Q578.875,1007.3906 578.9844,1007.7578 Q579.0938,1008.125 579.2031,1008.2656 Q579.4531,1008.5156 580.0625,1008.7813 Q580.6719,1009.0469 581.4063,1009.0469 Q582.5469,1009.0469 583.2656,1008.5156 Q583.7344,1008.1875 583.7344,1007.7188 Q583.7344,1007.4063 583.5156,1007.125 Q583.2969,1006.8438 582.7813,1006.6719 Q582.4531,1006.5469 581.2969,1006.3281 Q579.9063,1006.0625 579.1875,1005.7031 Q578.4688,1005.3438 578.0547,1004.6797 Q577.6406,1004.0156 577.6406,1003.2344 Q577.6406,1002.0156 578.6641,1001.1016 Q579.6875,1000.1875 581.3281,1000.1875 Q581.9844,1000.1875 582.5391,1000.3281 Q583.0938,1000.4688 583.5625,1000.7656 Q583.8906,1000.4531 584.2188,1000.4531 Q584.5938,1000.4531 584.8281,1000.7109 Q585.0625,1000.9688 585.0625,1001.5781 L585.0625,1002.8594 Q585.0625,1003.4688 584.8281,1003.7266 Q584.5938,1003.9844 584.2188,1003.9844 Q583.9063,1003.9844 583.6719,1003.7969 Q583.4844,1003.6563 583.3984,1003.2344 Q583.3125,1002.8125 583.1719,1002.625 Q582.9219,1002.3125 582.4453,1002.1016 Q581.9688,1001.8906 581.3281,1001.8906 Q580.4063,1001.8906 579.875,1002.3125 Q579.3438,1002.7344 579.3438,1003.2031 Q579.3438,1003.5156 579.5625,1003.8125 Q579.7813,1004.1094 580.2031,1004.2813 Q580.4844,1004.3906 581.7891,1004.6484 Q583.0938,1004.9063 583.7969,1005.2109 Q584.5,1005.5156 584.9688,1006.1719 Q585.4375,1006.8281 585.4375,1007.7344 Q585.4375,1009 584.5469,1009.75 Q583.3594,1010.75 581.5313,1010.75 Q580.8281,1010.75 580.1641,1010.5781 Q579.5,1010.4063 578.8594,1010.0625 Z " fill="#000000"/><text fill="#000000" font-family="sans-serif" font-size="14" lengthAdjust="spacing" textLength="84" x="601.25" y="1011.2285">miniBRestzeit</text><line style="stroke:#000000;stroke-width:0.5;" x1="524.5" x2="729.5" y1="1021.5" y2="1021.5"/><text fill="#000000" font-family="sans-serif" font-size="14" lengthAdjust="spacing" textLength="195" x="529.5" y="1040.0332">-billard modelle.MiniBillardSpiel</text><line style="stroke:#000000;stroke-width:0.5;" x1="524.5" x2="729.5" y1="1047.1094" y2="1047.1094"/><text fill="#000000" font-family="sans-serif" font-size="14" lengthAdjust="spacing" textLength="68" x="529.5" y="1065.6426">+Zeichne()</text></g><!--class miniBSpielfeld--><g id="elem_miniBSpielfeld"><rect codeLine="103" fill="#FFFFFF" height="136.0469" id="miniBSpielfeld" rx="2.5" ry="2.5" style="stroke:#000000;stroke-width:0.5;" width="293" x="765.5" y="963"/><ellipse cx="863.75" cy="979" fill="#FFFFFF" rx="11" ry="11" style="stroke:#181818;stroke-width:1.0;"/><path d="M861.8594,983.5625 Q861.6406,983.8281 861.5,983.9063 Q861.3594,983.9844 861.1719,983.9844 Q860.7813,983.9844 860.5391,983.7188 Q860.2969,983.4531 860.2969,982.8594 L860.2969,981.7031 Q860.2969,981.0938 860.5391,980.8359 Q860.7813,980.5781 861.1719,980.5781 Q861.4688,980.5781 861.6719,980.7344 Q861.875,980.8906 861.9844,981.2578 Q862.0938,981.625 862.2031,981.7656 Q862.4531,982.0156 863.0625,982.2813 Q863.6719,982.5469 864.4063,982.5469 Q865.5469,982.5469 866.2656,982.0156 Q866.7344,981.6875 866.7344,981.2188 Q866.7344,980.9063 866.5156,980.625 Q866.2969,980.3438 865.7813,980.1719 Q865.4531,980.0469 864.2969,979.8281 Q862.9063,979.5625 862.1875,979.2031 Q861.4688,978.8438 861.0547,978.1797 Q860.6406,977.5156 860.6406,976.7344 Q860.6406,975.5156 861.6641,974.6016 Q862.6875,973.6875 864.3281,973.6875 Q864.9844,973.6875 865.5391,973.8281 Q866.0938,973.9688 866.5625,974.2656 Q866.8906,973.9531 867.2188,973.9531 Q867.5938,973.9531 867.8281,974.2109 Q868.0625,974.4688 868.0625,975.0781 L868.0625,976.3594 Q868.0625,976.9688 867.8281,977.2266 Q867.5938,977.4844 867.2188,977.4844 Q866.9063,977.4844 866.6719,977.2969 Q866.4844,977.1563 866.3984,976.7344 Q866.3125,976.3125 866.1719,976.125 Q865.9219,975.8125 865.4453,975.6016 Q864.9688,975.3906 864.3281,975.3906 Q863.4063,975.3906 862.875,975.8125 Q862.3438,976.2344 862.3438,976.7031 Q862.3438,977.0156 862.5625,977.3125 Q862.7813,977.6094 863.2031,977.7813 Q863.4844,977.8906 864.7891,978.1484 Q866.0938,978.4063 866.7969,978.7109 Q867.5,979.0156 867.9688,979.6719 Q868.4375,980.3281 868.4375,981.2344 Q868.4375,982.5 867.5469,983.25 Q866.3594,984.25 864.5313,984.25 Q863.8281,984.25 863.1641,984.0781 Q862.5,983.9063 861.8594,983.5625 Z " fill="#000000"/><text fill="#000000" font-family="sans-serif" font-size="14" lengthAdjust="spacing" textLength="88" x="884.25" y="984.7285">miniBSpielfeld</text><line style="stroke:#000000;stroke-width:0.5;" x1="766.5" x2="1057.5" y1="995" y2="995"/><text fill="#000000" font-family="sans-serif" font-size="14" lengthAdjust="spacing" textLength="195" x="771.5" y="1013.5332">-billard modelle.MiniBillardSpiel</text><text fill="#000000" font-family="sans-serif" font-size="14" lengthAdjust="spacing" textLength="194" x="771.5" y="1031.1426">-kugelZeichner *KugelZeichner</text><line style="stroke:#000000;stroke-width:0.5;" x1="766.5" x2="1057.5" y1="1038.2188" y2="1038.2188"/><text fill="#000000" font-family="sans-serif" font-size="14" lengthAdjust="spacing" textLength="281" x="771.5" y="1056.752">-zeichneDiamant(x uint16, y uint16, d uint16)</text><text fill="#000000" font-family="sans-serif" font-size="14" lengthAdjust="spacing" textLength="4" x="771.5" y="1074.3613">&#160;</text><text fill="#000000" font-family="sans-serif" font-size="14" lengthAdjust="spacing" textLength="68" x="771.5" y="1091.9707">+Zeichne()</text></g><!--class miniBSpielinfo--><g id="elem_miniBSpielinfo"><rect codeLine="112" fill="#FFFFFF" height="83.2188" id="miniBSpielinfo" rx="2.5" ry="2.5" style="stroke:#000000;stroke-width:0.5;" width="207" x="1093.5" y="989.5"/><ellipse cx="1148.75" cy="1005.5" fill="#FFFFFF" rx="11" ry="11" style="stroke:#181818;stroke-width:1.0;"/><path d="M1146.8594,1010.0625 Q1146.6406,1010.3281 1146.5,1010.4063 Q1146.3594,1010.4844 1146.1719,1010.4844 Q1145.7813,1010.4844 1145.5391,1010.2188 Q1145.2969,1009.9531 1145.2969,1009.3594 L1145.2969,1008.2031 Q1145.2969,1007.5938 1145.5391,1007.3359 Q1145.7813,1007.0781 1146.1719,1007.0781 Q1146.4688,1007.0781 1146.6719,1007.2344 Q1146.875,1007.3906 1146.9844,1007.7578 Q1147.0938,1008.125 1147.2031,1008.2656 Q1147.4531,1008.5156 1148.0625,1008.7813 Q1148.6719,1009.0469 1149.4063,1009.0469 Q1150.5469,1009.0469 1151.2656,1008.5156 Q1151.7344,1008.1875 1151.7344,1007.7188 Q1151.7344,1007.4063 1151.5156,1007.125 Q1151.2969,1006.8438 1150.7813,1006.6719 Q1150.4531,1006.5469 1149.2969,1006.3281 Q1147.9063,1006.0625 1147.1875,1005.7031 Q1146.4688,1005.3438 1146.0547,1004.6797 Q1145.6406,1004.0156 1145.6406,1003.2344 Q1145.6406,1002.0156 1146.6641,1001.1016 Q1147.6875,1000.1875 1149.3281,1000.1875 Q1149.9844,1000.1875 1150.5391,1000.3281 Q1151.0938,1000.4688 1151.5625,1000.7656 Q1151.8906,1000.4531 1152.2188,1000.4531 Q1152.5938,1000.4531 1152.8281,1000.7109 Q1153.0625,1000.9688 1153.0625,1001.5781 L1153.0625,1002.8594 Q1153.0625,1003.4688 1152.8281,1003.7266 Q1152.5938,1003.9844 1152.2188,1003.9844 Q1151.9063,1003.9844 1151.6719,1003.7969 Q1151.4844,1003.6563 1151.3984,1003.2344 Q1151.3125,1002.8125 1151.1719,1002.625 Q1150.9219,1002.3125 1150.4453,1002.1016 Q1149.9688,1001.8906 1149.3281,1001.8906 Q1148.4063,1001.8906 1147.875,1002.3125 Q1147.3438,1002.7344 1147.3438,1003.2031 Q1147.3438,1003.5156 1147.5625,1003.8125 Q1147.7813,1004.1094 1148.2031,1004.2813 Q1148.4844,1004.3906 1149.7891,1004.6484 Q1151.0938,1004.9063 1151.7969,1005.2109 Q1152.5,1005.5156 1152.9688,1006.1719 Q1153.4375,1006.8281 1153.4375,1007.7344 Q1153.4375,1009 1152.5469,1009.75 Q1151.3594,1010.75 1149.5313,1010.75 Q1148.8281,1010.75 1148.1641,1010.5781 Q1147.5,1010.4063 1146.8594,1010.0625 Z " fill="#000000"/><text fill="#000000" font-family="sans-serif" font-size="14" lengthAdjust="spacing" textLength="88" x="1169.25" y="1011.2285">miniBSpielinfo</text><line style="stroke:#000000;stroke-width:0.5;" x1="1094.5" x2="1299.5" y1="1021.5" y2="1021.5"/><text fill="#000000" font-family="sans-serif" font-size="14" lengthAdjust="spacing" textLength="195" x="1099.5" y="1040.0332">-billard modelle.MiniBillardSpiel</text><line style="stroke:#000000;stroke-width:0.5;" x1="1094.5" x2="1299.5" y1="1047.1094" y2="1047.1094"/><text fill="#000000" font-family="sans-serif" font-size="14" lengthAdjust="spacing" textLength="68" x="1099.5" y="1065.6426">+Zeichne()</text></g><!--class quizfenster--><g id="elem_quizfenster"><rect codeLine="118" fill="#FFFFFF" height="136.0469" id="quizfenster" rx="2.5" ry="2.5" style="stroke:#000000;stroke-width:0.5;" width="290" x="1336" y="963"/><ellipse cx="1442.25" cy="979" fill="#FFFFFF" rx="11" ry="11" style="stroke:#181818;stroke-width:1.0;"/><path d="M1440.3594,983.5625 Q1440.1406,983.8281 1440,983.9063 Q1439.8594,983.9844 1439.6719,983.9844 Q1439.2813,983.9844 1439.0391,983.7188 Q1438.7969,983.4531 1438.7969,982.8594 L1438.7969,981.7031 Q1438.7969,981.0938 1439.0391,980.8359 Q1439.2813,980.5781 1439.6719,980.5781 Q1439.9688,980.5781 1440.1719,980.7344 Q1440.375,980.8906 1440.4844,981.2578 Q1440.5938,981.625 1440.7031,981.7656 Q1440.9531,982.0156 1441.5625,982.2813 Q1442.1719,982.5469 1442.9063,982.5469 Q1444.0469,982.5469 1444.7656,982.0156 Q1445.2344,981.6875 1445.2344,981.2188 Q1445.2344,980.9063 1445.0156,980.625 Q1444.7969,980.3438 1444.2813,980.1719 Q1443.9531,980.0469 1442.7969,979.8281 Q1441.4063,979.5625 1440.6875,979.2031 Q1439.9688,978.8438 1439.5547,978.1797 Q1439.1406,977.5156 1439.1406,976.7344 Q1439.1406,975.5156 1440.1641,974.6016 Q1441.1875,973.6875 1442.8281,973.6875 Q1443.4844,973.6875 1444.0391,973.8281 Q1444.5938,973.9688 1445.0625,974.2656 Q1445.3906,973.9531 1445.7188,973.9531 Q1446.0938,973.9531 1446.3281,974.2109 Q1446.5625,974.4688 1446.5625,975.0781 L1446.5625,976.3594 Q1446.5625,976.9688 1446.3281,977.2266 Q1446.0938,977.4844 1445.7188,977.4844 Q1445.4063,977.4844 1445.1719,977.2969 Q1444.9844,977.1563 1444.8984,976.7344 Q1444.8125,976.3125 1444.6719,976.125 Q1444.4219,975.8125 1443.9453,975.6016 Q1443.4688,975.3906 1442.8281,975.3906 Q1441.9063,975.3906 1441.375,975.8125 Q1440.8438,976.2344 1440.8438,976.7031 Q1440.8438,977.0156 1441.0625,977.3125 Q1441.2813,977.6094 1441.7031,977.7813 Q1441.9844,977.8906 1443.2891,978.1484 Q1444.5938,978.4063 1445.2969,978.7109 Q1446,979.0156 1446.4688,979.6719 Q1446.9375,980.3281 1446.9375,981.2344 Q1446.9375,982.5 1446.0469,983.25 Q1444.8594,984.25 1443.0313,984.25 Q1442.3281,984.25 1441.6641,984.0781 Q1441,983.9063 1440.3594,983.5625 Z " fill="#000000"/><text fill="#000000" font-family="sans-serif" font-size="14" lengthAdjust="spacing" textLength="69" x="1462.75" y="984.7285">quizfenster</text><line style="stroke:#000000;stroke-width:0.5;" x1="1337" x2="1625" y1="995" y2="995"/><text fill="#000000" font-family="sans-serif" font-size="14" lengthAdjust="spacing" textLength="115" x="1342" y="1013.5332">-quiz modelle.Quiz</text><text fill="#000000" font-family="sans-serif" font-size="14" lengthAdjust="spacing" textLength="86" x="1342" y="1031.1426">-frage Widget</text><text fill="#000000" font-family="sans-serif" font-size="14" lengthAdjust="spacing" textLength="123" x="1342" y="1048.752">-antworten []Widget</text><line style="stroke:#000000;stroke-width:0.5;" x1="1337" x2="1625" y1="1055.8281" y2="1055.8281"/><text fill="#000000" font-family="sans-serif" font-size="14" lengthAdjust="spacing" textLength="278" x="1342" y="1074.3613">+MausklickBei(mausX uint16, mausY uint16)</text><text fill="#000000" font-family="sans-serif" font-size="14" lengthAdjust="spacing" textLength="68" x="1342" y="1091.9707">+Zeichne()</text></g><!--class rgb--><g id="elem_rgb"><rect codeLine="127" fill="#FFFFFF" height="83.2188" id="rgb" rx="2.5" ry="2.5" style="stroke:#000000;stroke-width:0.5;" width="183" x="1422.5" y="582"/><ellipse cx="1499.25" cy="598" fill="#FFFFFF" rx="11" ry="11" style="stroke:#181818;stroke-width:1.0;"/><path d="M1497.3594,602.5625 Q1497.1406,602.8281 1497,602.9063 Q1496.8594,602.9844 1496.6719,602.9844 Q1496.2813,602.9844 1496.0391,602.7188 Q1495.7969,602.4531 1495.7969,601.8594 L1495.7969,600.7031 Q1495.7969,600.0938 1496.0391,599.8359 Q1496.2813,599.5781 1496.6719,599.5781 Q1496.9688,599.5781 1497.1719,599.7344 Q1497.375,599.8906 1497.4844,600.2578 Q1497.5938,600.625 1497.7031,600.7656 Q1497.9531,601.0156 1498.5625,601.2813 Q1499.1719,601.5469 1499.9063,601.5469 Q1501.0469,601.5469 1501.7656,601.0156 Q1502.2344,600.6875 1502.2344,600.2188 Q1502.2344,599.9063 1502.0156,599.625 Q1501.7969,599.3438 1501.2813,599.1719 Q1500.9531,599.0469 1499.7969,598.8281 Q1498.4063,598.5625 1497.6875,598.2031 Q1496.9688,597.8438 1496.5547,597.1797 Q1496.1406,596.5156 1496.1406,595.7344 Q1496.1406,594.5156 1497.1641,593.6016 Q1498.1875,592.6875 1499.8281,592.6875 Q1500.4844,592.6875 1501.0391,592.8281 Q1501.5938,592.9688 1502.0625,593.2656 Q1502.3906,592.9531 1502.7188,592.9531 Q1503.0938,592.9531 1503.3281,593.2109 Q1503.5625,593.4688 1503.5625,594.0781 L1503.5625,595.3594 Q1503.5625,595.9688 1503.3281,596.2266 Q1503.0938,596.4844 1502.7188,596.4844 Q1502.4063,596.4844 1502.1719,596.2969 Q1501.9844,596.1563 1501.8984,595.7344 Q1501.8125,595.3125 1501.6719,595.125 Q1501.4219,594.8125 1500.9453,594.6016 Q1500.4688,594.3906 1499.8281,594.3906 Q1498.9063,594.3906 1498.375,594.8125 Q1497.8438,595.2344 1497.8438,595.7031 Q1497.8438,596.0156 1498.0625,596.3125 Q1498.2813,596.6094 1498.7031,596.7813 Q1498.9844,596.8906 1500.2891,597.1484 Q1501.5938,597.4063 1502.2969,597.7109 Q1503,598.0156 1503.4688,598.6719 Q1503.9375,599.3281 1503.9375,600.2344 Q1503.9375,601.5 1503.0469,602.25 Q1501.8594,603.25 1500.0313,603.25 Q1499.3281,603.25 1498.6641,603.0781 Q1498,602.9063 1497.3594,602.5625 Z " fill="#000000"/><text fill="#000000" font-family="sans-serif" font-size="14" lengthAdjust="spacing" textLength="21" x="1519.75" y="603.7285">rgb</text><line style="stroke:#000000;stroke-width:0.5;" x1="1423.5" x2="1604.5" y1="614" y2="614"/><text fill="#000000" font-family="sans-serif" font-size="14" lengthAdjust="spacing" textLength="45" x="1428.5" y="632.5332">-r uint8</text><line style="stroke:#000000;stroke-width:0.5;" x1="1423.5" x2="1604.5" y1="639.6094" y2="639.6094"/><text fill="#000000" font-family="sans-serif" font-size="14" lengthAdjust="spacing" textLength="171" x="1428.5" y="658.1426">+RGB() (uint8, uint8, uint8)</text></g><!--class schreiber--><g id="elem_schreiber"><rect codeLine="133" fill="#FFFFFF" height="136.0469" id="schreiber" rx="2.5" ry="2.5" style="stroke:#000000;stroke-width:0.5;" width="262" x="726" y="555.5"/><ellipse cx="823.25" cy="571.5" fill="#FFFFFF" rx="11" ry="11" style="stroke:#181818;stroke-width:1.0;"/><path d="M821.3594,576.0625 Q821.1406,576.3281 821,576.4063 Q820.8594,576.4844 820.6719,576.4844 Q820.2813,576.4844 820.0391,576.2188 Q819.7969,575.9531 819.7969,575.3594 L819.7969,574.2031 Q819.7969,573.5938 820.0391,573.3359 Q820.2813,573.0781 820.6719,573.0781 Q820.9688,573.0781 821.1719,573.2344 Q821.375,573.3906 821.4844,573.7578 Q821.5938,574.125 821.7031,574.2656 Q821.9531,574.5156 822.5625,574.7813 Q823.1719,575.0469 823.9063,575.0469 Q825.0469,575.0469 825.7656,574.5156 Q826.2344,574.1875 826.2344,573.7188 Q826.2344,573.4063 826.0156,573.125 Q825.7969,572.8438 825.2813,572.6719 Q824.9531,572.5469 823.7969,572.3281 Q822.4063,572.0625 821.6875,571.7031 Q820.9688,571.3438 820.5547,570.6797 Q820.1406,570.0156 820.1406,569.2344 Q820.1406,568.0156 821.1641,567.1016 Q822.1875,566.1875 823.8281,566.1875 Q824.4844,566.1875 825.0391,566.3281 Q825.5938,566.4688 826.0625,566.7656 Q826.3906,566.4531 826.7188,566.4531 Q827.0938,566.4531 827.3281,566.7109 Q827.5625,566.9688 827.5625,567.5781 L827.5625,568.8594 Q827.5625,569.4688 827.3281,569.7266 Q827.0938,569.9844 826.7188,569.9844 Q826.4063,569.9844 826.1719,569.7969 Q825.9844,569.6563 825.8984,569.2344 Q825.8125,568.8125 825.6719,568.625 Q825.4219,568.3125 824.9453,568.1016 Q824.4688,567.8906 823.8281,567.8906 Q822.9063,567.8906 822.375,568.3125 Q821.8438,568.7344 821.8438,569.2031 Q821.8438,569.5156 822.0625,569.8125 Q822.2813,570.1094 822.7031,570.2813 Q822.9844,570.3906 824.2891,570.6484 Q825.5938,570.9063 826.2969,571.2109 Q827,571.5156 827.4688,572.1719 Q827.9375,572.8281 827.9375,573.7344 Q827.9375,575 827.0469,575.75 Q825.8594,576.75 824.0313,576.75 Q823.3281,576.75 822.6641,576.5781 Q822,576.4063 821.3594,576.0625 Z " fill="#000000"/><text fill="#000000" font-family="sans-serif" font-size="14" lengthAdjust="spacing" textLength="59" x="843.75" y="577.2285">schreiber</text><line style="stroke:#000000;stroke-width:0.5;" x1="727" x2="987" y1="587.5" y2="587.5"/><text fill="#000000" font-family="sans-serif" font-size="14" lengthAdjust="spacing" textLength="99" x="732" y="606.0332">-fontdatei string</text><text fill="#000000" font-family="sans-serif" font-size="14" lengthAdjust="spacing" textLength="113" x="732" y="623.6426">-schriftgroesse int</text><line style="stroke:#000000;stroke-width:0.5;" x1="727" x2="987" y1="630.7188" y2="630.7188"/><text fill="#000000" font-family="sans-serif" font-size="14" lengthAdjust="spacing" textLength="214" x="732" y="649.252">+SetzeSchriftgroesse(groesse int)</text><text fill="#000000" font-family="sans-serif" font-size="14" lengthAdjust="spacing" textLength="150" x="732" y="666.8613">+GibSchriftgroesse() int</text><text fill="#000000" font-family="sans-serif" font-size="14" lengthAdjust="spacing" textLength="250" x="732" y="684.4707">+Schreibe(x uint16, y uint16, text string)</text></g><!--class text_overlay--><g id="elem_text_overlay"><rect codeLine="142" fill="#FFFFFF" height="83.2188" id="text_overlay" rx="2.5" ry="2.5" style="stroke:#000000;stroke-width:0.5;" width="108" x="1661" y="989.5"/><ellipse cx="1676" cy="1005.5" fill="#FFFFFF" rx="11" ry="11" style="stroke:#181818;stroke-width:1.0;"/><path d="M1674.1094,1010.0625 Q1673.8906,1010.3281 1673.75,1010.4063 Q1673.6094,1010.4844 1673.4219,1010.4844 Q1673.0313,1010.4844 1672.7891,1010.2188 Q1672.5469,1009.9531 1672.5469,1009.3594 L1672.5469,1008.2031 Q1672.5469,1007.5938 1672.7891,1007.3359 Q1673.0313,1007.0781 1673.4219,1007.0781 Q1673.7188,1007.0781 1673.9219,1007.2344 Q1674.125,1007.3906 1674.2344,1007.7578 Q1674.3438,1008.125 1674.4531,1008.2656 Q1674.7031,1008.5156 1675.3125,1008.7813 Q1675.9219,1009.0469 1676.6563,1009.0469 Q1677.7969,1009.0469 1678.5156,1008.5156 Q1678.9844,1008.1875 1678.9844,1007.7188 Q1678.9844,1007.4063 1678.7656,1007.125 Q1678.5469,1006.8438 1678.0313,1006.6719 Q1677.7031,1006.5469 1676.5469,1006.3281 Q1675.1563,1006.0625 1674.4375,1005.7031 Q1673.7188,1005.3438 1673.3047,1004.6797 Q1672.8906,1004.0156 1672.8906,1003.2344 Q1672.8906,1002.0156 1673.9141,1001.1016 Q1674.9375,1000.1875 1676.5781,1000.1875 Q1677.2344,1000.1875 1677.7891,1000.3281 Q1678.3438,1000.4688 1678.8125,1000.7656 Q1679.1406,1000.4531 1679.4688,1000.4531 Q1679.8438,1000.4531 1680.0781,1000.7109 Q1680.3125,1000.9688 1680.3125,1001.5781 L1680.3125,1002.8594 Q1680.3125,1003.4688 1680.0781,1003.7266 Q1679.8438,1003.9844 1679.4688,1003.9844 Q1679.1563,1003.9844 1678.9219,1003.7969 Q1678.7344,1003.6563 1678.6484,1003.2344 Q1678.5625,1002.8125 1678.4219,1002.625 Q1678.1719,1002.3125 1677.6953,1002.1016 Q1677.2188,1001.8906 1676.5781,1001.8906 Q1675.6563,1001.8906 1675.125,1002.3125 Q1674.5938,1002.7344 1674.5938,1003.2031 Q1674.5938,1003.5156 1674.8125,1003.8125 Q1675.0313,1004.1094 1675.4531,1004.2813 Q1675.7344,1004.3906 1677.0391,1004.6484 Q1678.3438,1004.9063 1679.0469,1005.2109 Q1679.75,1005.5156 1680.2188,1006.1719 Q1680.6875,1006.8281 1680.6875,1007.7344 Q1680.6875,1009 1679.7969,1009.75 Q1678.6094,1010.75 1676.7813,1010.75 Q1676.0781,1010.75 1675.4141,1010.5781 Q1674.75,1010.4063 1674.1094,1010.0625 Z " fill="#000000"/><text fill="#000000" font-family="sans-serif" font-size="14" lengthAdjust="spacing" textLength="76" x="1690" y="1011.2285">text_overlay</text><line style="stroke:#000000;stroke-width:0.5;" x1="1662" x2="1768" y1="1021.5" y2="1021.5"/><text fill="#000000" font-family="sans-serif" font-size="14" lengthAdjust="spacing" textLength="66" x="1667" y="1040.0332">-text string</text><line style="stroke:#000000;stroke-width:0.5;" x1="1662" x2="1768" y1="1047.1094" y2="1047.1094"/><text fill="#000000" font-family="sans-serif" font-size="14" lengthAdjust="spacing" textLength="68" x="1667" y="1065.6426">+Zeichne()</text></g><!--class textbox--><g id="elem_textbox"><rect codeLine="148" fill="#FFFFFF" height="83.2188" id="textbox" rx="2.5" ry="2.5" style="stroke:#000000;stroke-width:0.5;" width="80" x="1804" y="989.5"/><ellipse cx="1820.8" cy="1005.5" fill="#FFFFFF" rx="11" ry="11" style="stroke:#181818;stroke-width:1.0;"/><path d="M1818.9094,1010.0625 Q1818.6906,1010.3281 1818.55,1010.4063 Q1818.4094,1010.4844 1818.2219,1010.4844 Q1817.8313,1010.4844 1817.5891,1010.2188 Q1817.3469,1009.9531 1817.3469,1009.3594 L1817.3469,1008.2031 Q1817.3469,1007.5938 1817.5891,1007.3359 Q1817.8313,1007.0781 1818.2219,1007.0781 Q1818.5188,1007.0781 1818.7219,1007.2344 Q1818.925,1007.3906 1819.0344,1007.7578 Q1819.1438,1008.125 1819.2531,1008.2656 Q1819.5031,1008.5156 1820.1125,1008.7813 Q1820.7219,1009.0469 1821.4563,1009.0469 Q1822.5969,1009.0469 1823.3156,1008.5156 Q1823.7844,1008.1875 1823.7844,1007.7188 Q1823.7844,1007.4063 1823.5656,1007.125 Q1823.3469,1006.8438 1822.8313,1006.6719 Q1822.5031,1006.5469 1821.3469,1006.3281 Q1819.9563,1006.0625 1819.2375,1005.7031 Q1818.5188,1005.3438 1818.1047,1004.6797 Q1817.6906,1004.0156 1817.6906,1003.2344 Q1817.6906,1002.0156 1818.7141,1001.1016 Q1819.7375,1000.1875 1821.3781,1000.1875 Q1822.0344,1000.1875 1822.5891,1000.3281 Q1823.1438,1000.4688 1823.6125,1000.7656 Q1823.9406,1000.4531 1824.2688,1000.4531 Q1824.6438,1000.4531 1824.8781,1000.7109 Q1825.1125,1000.9688 1825.1125,1001.5781 L1825.1125,1002.8594 Q1825.1125,1003.4688 1824.8781,1003.7266 Q1824.6438,1003.9844 1824.2688,1003.9844 Q1823.9563,1003.9844 1823.7219,1003.7969 Q1823.5344,1003.6563 1823.4484,1003.2344 Q1823.3625,1002.8125 1823.2219,1002.625 Q1822.9719,1002.3125 1822.4953,1002.1016 Q1822.0188,1001.8906 1821.3781,1001.8906 Q1820.4563,1001.8906 1819.925,1002.3125 Q1819.3938,1002.7344 1819.3938,1003.2031 Q1819.3938,1003.5156 1819.6125,1003.8125 Q1819.8313,1004.1094 1820.2531,1004.2813 Q1820.5344,1004.3906 1821.8391,1004.6484 Q1823.1438,1004.9063 1823.8469,1005.2109 Q1824.55,1005.5156 1825.0188,1006.1719 Q1825.4875,1006.8281 1825.4875,1007.7344 Q1825.4875,1009 1824.5969,1009.75 Q1823.4094,1010.75 1821.5813,1010.75 Q1820.8781,1010.75 1820.2141,1010.5781 Q1819.55,1010.4063 1818.9094,1010.0625 Z " fill="#000000"/><text fill="#000000" font-family="sans-serif" font-size="14" lengthAdjust="spacing" textLength="44" x="1835.2" y="1011.2285">textbox</text><line style="stroke:#000000;stroke-width:0.5;" x1="1805" x2="1883" y1="1021.5" y2="1021.5"/><text fill="#000000" font-family="sans-serif" font-size="14" lengthAdjust="spacing" textLength="66" x="1810" y="1040.0332">-text string</text><line style="stroke:#000000;stroke-width:0.5;" x1="1805" x2="1883" y1="1047.1094" y2="1047.1094"/><text fill="#000000" font-family="sans-serif" font-size="14" lengthAdjust="spacing" textLength="68" x="1810" y="1065.6426">+Zeichne()</text></g><!--class widget--><g id="elem_widget"><rect codeLine="154" fill="#FFFFFF" height="558.6719" id="widget" rx="2.5" ry="2.5" style="stroke:#000000;stroke-width:0.5;" width="520" x="171" y="344"/><ellipse cx="406.75" cy="360" fill="#FFFFFF" rx="11" ry="11" style="stroke:#181818;stroke-width:1.0;"/><path d="M404.8594,364.5625 Q404.6406,364.8281 404.5,364.9063 Q404.3594,364.9844 404.1719,364.9844 Q403.7813,364.9844 403.5391,364.7188 Q403.2969,364.4531 403.2969,363.8594 L403.2969,362.7031 Q403.2969,362.0938 403.5391,361.8359 Q403.7813,361.5781 404.1719,361.5781 Q404.4688,361.5781 404.6719,361.7344 Q404.875,361.8906 404.9844,362.2578 Q405.0938,362.625 405.2031,362.7656 Q405.4531,363.0156 406.0625,363.2813 Q406.6719,363.5469 407.4063,363.5469 Q408.5469,363.5469 409.2656,363.0156 Q409.7344,362.6875 409.7344,362.2188 Q409.7344,361.9063 409.5156,361.625 Q409.2969,361.3438 408.7813,361.1719 Q408.4531,361.0469 407.2969,360.8281 Q405.9063,360.5625 405.1875,360.2031 Q404.4688,359.8438 404.0547,359.1797 Q403.6406,358.5156 403.6406,357.7344 Q403.6406,356.5156 404.6641,355.6016 Q405.6875,354.6875 407.3281,354.6875 Q407.9844,354.6875 408.5391,354.8281 Q409.0938,354.9688 409.5625,355.2656 Q409.8906,354.9531 410.2188,354.9531 Q410.5938,354.9531 410.8281,355.2109 Q411.0625,355.4688 411.0625,356.0781 L411.0625,357.3594 Q411.0625,357.9688 410.8281,358.2266 Q410.5938,358.4844 410.2188,358.4844 Q409.9063,358.4844 409.6719,358.2969 Q409.4844,358.1563 409.3984,357.7344 Q409.3125,357.3125 409.1719,357.125 Q408.9219,356.8125 408.4453,356.6016 Q407.9688,356.3906 407.3281,356.3906 Q406.4063,356.3906 405.875,356.8125 Q405.3438,357.2344 405.3438,357.7031 Q405.3438,358.0156 405.5625,358.3125 Q405.7813,358.6094 406.2031,358.7813 Q406.4844,358.8906 407.7891,359.1484 Q409.0938,359.4063 409.7969,359.7109 Q410.5,360.0156 410.9688,360.6719 Q411.4375,361.3281 411.4375,362.2344 Q411.4375,363.5 410.5469,364.25 Q409.3594,365.25 407.5313,365.25 Q406.8281,365.25 406.1641,365.0781 Q405.5,364.9063 404.8594,364.5625 Z " fill="#000000"/><text fill="#000000" font-family="sans-serif" font-size="14" lengthAdjust="spacing" textLength="40" x="427.25" y="365.7285">widget</text><line style="stroke:#000000;stroke-width:0.5;" x1="172" x2="690" y1="376" y2="376"/><text fill="#000000" font-family="sans-serif" font-size="14" lengthAdjust="spacing" textLength="84" x="177" y="394.5332">-startX uint16</text><text fill="#000000" font-family="sans-serif" font-size="14" lengthAdjust="spacing" textLength="83" x="177" y="412.1426">-stopX uint16</text><text fill="#000000" font-family="sans-serif" font-size="14" lengthAdjust="spacing" textLength="63" x="177" y="429.752">-hg Farbe</text><text fill="#000000" font-family="sans-serif" font-size="14" lengthAdjust="spacing" textLength="115" x="177" y="447.3613">-transparenz uint8</text><text fill="#000000" font-family="sans-serif" font-size="14" lengthAdjust="spacing" textLength="109" x="177" y="464.9707">-eckradius uint16</text><line style="stroke:#000000;stroke-width:0.5;" x1="172" x2="690" y1="472.0469" y2="472.0469"/><text fill="#000000" font-family="sans-serif" font-size="14" lengthAdjust="spacing" textLength="462" x="177" y="490.5801">+SetzeKoordinaten(startx uint16, starty uint16, stopx uint16, stopy uint16)</text><text fill="#000000" font-family="sans-serif" font-size="14" lengthAdjust="spacing" textLength="222" x="177" y="508.1895">+SetzeFarben(hg Farbe, vg Farbe)</text><text fill="#000000" font-family="sans-serif" font-size="14" lengthAdjust="spacing" textLength="177" x="177" y="525.7988">+SetzeTransparenz(tr uint8)</text><text fill="#000000" font-family="sans-serif" font-size="14" lengthAdjust="spacing" textLength="171" x="177" y="543.4082">+SetzeEckradius(ra uint16)</text><text fill="#000000" font-family="sans-serif" font-size="14" lengthAdjust="spacing" textLength="245" x="177" y="561.0176">+GibStartkoordinaten() (uint16, uint16)</text><text fill="#000000" font-family="sans-serif" font-size="14" lengthAdjust="spacing" textLength="194" x="177" y="578.627">+GibGroesse() (uint16, uint16)</text><text fill="#000000" font-family="sans-serif" font-size="14" lengthAdjust="spacing" textLength="219" x="177" y="596.2363">+ImFenster(x uint16, y uint16) bool</text><text fill="#000000" font-family="sans-serif" font-size="14" lengthAdjust="spacing" textLength="206" x="177" y="613.8457">+MausklickBei(x uint16, y uint16)</text><text fill="#000000" font-family="sans-serif" font-size="14" lengthAdjust="spacing" textLength="111" x="177" y="631.4551">+ZeichneLayout()</text><text fill="#000000" font-family="sans-serif" font-size="14" lengthAdjust="spacing" textLength="68" x="177" y="649.0645">+Zeichne()</text><text fill="#000000" font-family="sans-serif" font-size="14" lengthAdjust="spacing" textLength="102" x="177" y="666.6738">+ZeichneRand()</text><text fill="#000000" font-family="sans-serif" font-size="14" lengthAdjust="spacing" textLength="124" x="177" y="684.2832">+Stiftfarbe(c Farbe)</text><text fill="#000000" font-family="sans-serif" font-size="14" lengthAdjust="spacing" textLength="245" x="177" y="701.8926">+StiftfarbeGFX(r uint8, g uint8, b uint8)</text><text fill="#000000" font-family="sans-serif" font-size="14" lengthAdjust="spacing" textLength="142" x="177" y="719.502">+Transparenz(tr uint8)</text><text fill="#000000" font-family="sans-serif" font-size="14" lengthAdjust="spacing" textLength="334" x="177" y="737.1113">+LinieGFX(xV uint16, yV uint16, xN uint16, yN uint16)</text><text fill="#000000" font-family="sans-serif" font-size="14" lengthAdjust="spacing" textLength="371" x="177" y="754.7207">+VollRechteckGFX(xV uint16, yV uint16, b uint16, h uint16)</text><text fill="#000000" font-family="sans-serif" font-size="14" lengthAdjust="spacing" textLength="305" x="177" y="772.3301">+VollKreis(pos hilf.Vec2, radius float64, c Farbe)</text><text fill="#000000" font-family="sans-serif" font-size="14" lengthAdjust="spacing" textLength="272" x="177" y="789.9395">+VollKreisGFX(x uint16, y uint16, ra uint16)</text><text fill="#000000" font-family="sans-serif" font-size="14" lengthAdjust="spacing" textLength="485" x="177" y="807.5488">+Kreissektor(pos hilf.Vec2, radius float64, wVon uint16, wBis uint16, c Farbe)</text><text fill="#000000" font-family="sans-serif" font-size="14" lengthAdjust="spacing" textLength="452" x="177" y="825.1582">+KreissektorGFX(x uint16, y uint16, ra uint16, wVon uint16, wBis uint16)</text><text fill="#000000" font-family="sans-serif" font-size="14" lengthAdjust="spacing" textLength="508" x="177" y="842.7676">+VollKreissektor(pos hilf.Vec2, radius float64, wVon uint16, wBis uint16, c Farbe)</text><text fill="#000000" font-family="sans-serif" font-size="14" lengthAdjust="spacing" textLength="475" x="177" y="860.377">+VollKreissektorGFX(x uint16, y uint16, ra uint16, wVon uint16, wBis uint16)</text><text fill="#000000" font-family="sans-serif" font-size="14" lengthAdjust="spacing" textLength="502" x="177" y="877.9863">+VollDreieckGFX(x1 uint16, y1 uint16, x2 uint16, y2 uint16, x3 uint16, y3 uint16)</text><text fill="#000000" font-family="sans-serif" font-size="14" lengthAdjust="spacing" textLength="391" x="177" y="895.5957">+BreiteLinie(pV hilf.Vec2, pN hilf.Vec2, breite float64, c Farbe)</text></g><!--reverse link widget to KugelZeichner--><g id="link_widget_KugelZeichner"><path codeLine="188" d="M224.0817,912.838 C208.5317,934.498 200.96,945.05 188.22,962.8 " fill="none" id="widget-backto-KugelZeichner" style="stroke:#000000;stroke-width:1.0;"/><polygon fill="#000000" points="231.08,903.09,224.3315,905.6313,224.0817,912.838,230.8302,910.2968,231.08,903.09" style="stroke:#000000;stroke-width:1.0;"/><text fill="#000000" font-family="sans-serif" font-size="13" lengthAdjust="spacing" textLength="46" x="144.9784" y="951.9774">extends</text></g><!--reverse link Widget to MBSpielView--><g id="link_Widget_MBSpielView"><path codeLine="189" d="M185.2686,293.529 C170.4386,312.579 164.01,323.36 153,344 C106.49,431.18 87.7,549.6 81.54,599.17 " fill="none" id="Widget-backto-MBSpielView" style="stroke:#000000;stroke-width:1.0;"/><polygon fill="#000000" points="192.64,284.06,185.798,286.3374,185.2686,293.529,192.1106,291.2516,192.64,284.06" style="stroke:#000000;stroke-width:1.0;"/><text fill="#000000" font-family="sans-serif" font-size="13" lengthAdjust="spacing" textLength="46" x="30.5529" y="588.8275">extends</text></g><!--reverse link widget to button--><g id="link_widget_button"><path codeLine="190" d="M360.8514,914.7543 C352.7514,948.2743 348.25,966.9 342.79,989.47 " fill="none" id="widget-backto-button" style="stroke:#000000;stroke-width:1.0;"/><polygon fill="#000000" points="363.67,903.09,358.3726,907.9826,360.8514,914.7543,366.1488,909.8617,363.67,903.09" style="stroke:#000000;stroke-width:1.0;"/><text fill="#000000" font-family="sans-serif" font-size="13" lengthAdjust="spacing" textLength="46" x="294.6021" y="978.7727">extends</text></g><!--reverse link widget to infotext--><g id="link_widget_infotext"><path codeLine="191" d="M443.1808,915.0795 C444.5808,948.5995 445.35,966.9 446.3,989.47 " fill="none" id="widget-backto-infotext" style="stroke:#000000;stroke-width:1.0;"/><polygon fill="#000000" points="442.68,903.09,438.9339,909.2517,443.1808,915.0795,446.9269,908.9179,442.68,903.09" style="stroke:#000000;stroke-width:1.0;"/><text fill="#000000" font-family="sans-serif" font-size="13" lengthAdjust="spacing" textLength="46" x="396.2091" y="978.7727">extends</text></g><!--reverse link widget to miniBRestzeit--><g id="link_widget_miniBRestzeit"><path codeLine="192" d="M570.8817,913.8944 C587.0817,947.4144 596.5,966.9 607.41,989.47 " fill="none" id="widget-backto-miniBRestzeit" style="stroke:#000000;stroke-width:1.0;"/><polygon fill="#000000" points="565.66,903.09,564.6694,910.2327,570.8817,913.8944,571.8723,906.7516,565.66,903.09" style="stroke:#000000;stroke-width:1.0;"/><text fill="#000000" font-family="sans-serif" font-size="13" lengthAdjust="spacing" textLength="46" x="554.356" y="978.7727">extends</text></g><!--reverse link widget to miniBSpielfeld--><g id="link_widget_miniBSpielfeld"><path codeLine="193" d="M700.5905,896.2959 C706.4805,901.1759 703.12,898.32 709,903 C735.5,924.11 765.7,944.65 794.56,962.85 " fill="none" id="widget-backto-miniBSpielfeld" style="stroke:#000000;stroke-width:1.0;"/><polygon fill="#000000" points="691.35,888.64,693.4183,895.5481,700.5905,896.2959,698.5222,889.3878,691.35,888.64" style="stroke:#000000;stroke-width:1.0;"/><text fill="#000000" font-family="sans-serif" font-size="13" lengthAdjust="spacing" textLength="46" x="733.1994" y="952.0329">extends</text></g><!--reverse link widget to miniBSpielinfo--><g id="link_widget_miniBSpielinfo"><path codeLine="194" d="M701.7669,899.372 C707.5969,902.732 703.07,899.96 709,903 C856.04,978.47 919.85,908.84 1076,963 C1095.4,969.73 1115.33,979.44 1133.29,989.38 " fill="none" id="widget-backto-miniBSpielinfo" style="stroke:#000000;stroke-width:1.0;"/><polygon fill="#000000" points="691.37,893.38,694.5711,899.8417,701.7669,899.372,698.5658,892.9104,691.37,893.38" style="stroke:#000000;stroke-width:1.0;"/><text fill="#000000" font-family="sans-serif" font-size="13" lengthAdjust="spacing" textLength="46" x="1072.9287" y="978.6678">extends</text></g><!--reverse link widget to quizfenster--><g id="link_widget_quizfenster"><path codeLine="195" d="M701.6624,899.6237 C707.5724,902.8237 702.98,900.15 709,903 C954.81,1019.4 1054.09,897.27 1318,963 C1323.94,964.48 1329.94,966.14 1335.97,967.93 " fill="none" id="widget-backto-quizfenster" style="stroke:#000000;stroke-width:1.0;"/><polygon fill="#000000" points="691.11,893.91,694.4817,900.2843,701.6624,899.6237,698.2908,893.2494,691.11,893.91" style="stroke:#000000;stroke-width:1.0;"/><text fill="#000000" font-family="sans-serif" font-size="13" lengthAdjust="spacing" textLength="46" x="1281.831" y="961.99">extends</text></g><!--reverse link widget to text_overlay--><g id="link_widget_text_overlay"><path codeLine="196" d="M702.0721,899.994 C707.8621,903.024 703.09,900.32 709,903 C1088.33,1074.77 1262.14,796.92 1644,963 C1657.83,969.02 1670.63,978.95 1681.44,989.34 " fill="none" id="widget-backto-text_overlay" style="stroke:#000000;stroke-width:1.0;"/><polygon fill="#000000" points="691.44,894.43,694.9014,900.756,702.0721,899.994,698.6107,893.6679,691.44,894.43" style="stroke:#000000;stroke-width:1.0;"/><text fill="#000000" font-family="sans-serif" font-size="13" lengthAdjust="spacing" textLength="46" x="1626.0723" y="978.6212">extends</text></g><!--reverse link widget to textbox--><g id="link_widget_textbox"><path codeLine="197" d="M702.055,900.0201 C707.865,903.0301 703.08,900.35 709,903 C927.98,1001.04 1572.09,856.33 1787,963 C1799.17,969.04 1809.77,978.98 1818.42,989.38 " fill="none" id="widget-backto-textbox" style="stroke:#000000;stroke-width:1.0;"/><polygon fill="#000000" points="691.4,894.5,694.8875,900.8117,702.055,900.0201,698.5675,893.7084,691.4,894.5" style="stroke:#000000;stroke-width:1.0;"/><text fill="#000000" font-family="sans-serif" font-size="13" lengthAdjust="spacing" textLength="46" x="1772.5389" y="978.6047">extends</text></g><!--reverse link EingabeProzess to bpMausProzess--><g id="link_EingabeProzess_bpMausProzess"><path codeLine="199" d="M1795,231.5 C1795,306.76 1795,433.27 1795,528.79 " fill="none" id="EingabeProzess-backto-bpMausProzess" style="stroke:#000000;stroke-width:1.0;"/><polygon fill="none" points="1795,213.5,1789,231.5,1801,231.5,1795,213.5" style="stroke:#000000;stroke-width:1.0;"/><text fill="#000000" font-family="sans-serif" font-size="13" lengthAdjust="spacing" textLength="67" x="1725.3305" y="518.1194">implements</text></g><!--reverse link FensterZeichner to fzeichner--><g id="link_FensterZeichner_fzeichner"><path codeLine="200" d="M1205,258.23 C1205,327.11 1205,411.91 1205,493.56 " fill="none" id="FensterZeichner-backto-fzeichner" style="stroke:#000000;stroke-width:1.0;"/><polygon fill="none" points="1205,240.23,1199,258.23,1211,258.23,1205,240.23" style="stroke:#000000;stroke-width:1.0;"/><text fill="#000000" font-family="sans-serif" font-size="13" lengthAdjust="spacing" textLength="67" x="1136.0633" y="483.0816">implements</text></g><!--reverse link Farbe to rgb--><g id="link_Farbe_rgb"><path codeLine="201" d="M1514,214.24 C1514,295.78 1514,492.08 1514,581.94 " fill="none" id="Farbe-backto-rgb" style="stroke:#000000;stroke-width:1.0;"/><polygon fill="none" points="1514,196.24,1508,214.24,1520,214.24,1514,196.24" style="stroke:#000000;stroke-width:1.0;"/><text fill="#000000" font-family="sans-serif" font-size="13" lengthAdjust="spacing" textLength="67" x="1441.4516" y="571.2377">implements</text></g><!--reverse link Schreiber to schreiber--><g id="link_Schreiber_schreiber"><path codeLine="202" d="M857,231.5 C857,314.17 857,462.4 857,555.47 " fill="none" id="Schreiber-backto-schreiber" style="stroke:#000000;stroke-width:1.0;"/><polygon fill="none" points="857,213.5,851,231.5,863,231.5,857,213.5" style="stroke:#000000;stroke-width:1.0;"/><text fill="#000000" font-family="sans-serif" font-size="13" lengthAdjust="spacing" textLength="67" x="786.3359" y="544.666">implements</text></g><!--reverse link Widget to widget--><g id="link_Widget_widget"><path codeLine="203" d="M347.009,301.5831 C351.939,320.4131 352.65,323.12 358.06,343.81 " fill="none" id="Widget-backto-widget" style="stroke:#000000;stroke-width:1.0;"/><polygon fill="none" points="342.45,284.17,341.2047,303.1028,352.8134,300.0634,342.45,284.17" style="stroke:#000000;stroke-width:1.0;"/><text fill="#000000" font-family="sans-serif" font-size="13" lengthAdjust="spacing" textLength="67" x="287.9001" y="332.7744">implements</text></g><!--SRC=[nLXRK-Cs57xthz3aoT10osw7wGDbXdGNXk4ob6m3xSxEZkqSEveuaYlB9D3ottiat-HOJa9Wjpo0BkTyvw9pm-cKiiGJtem4iPUc9r8AwcSIpWFEXlG9o4zEsYGX_pW3BvX6WcTi_1kFkI1t4oh1EH62p_E3GOmKpe2BCGZpvDbXtWpIn0k0F52OfrzHZ1GyLgW4VoYJ849r_P6ooFFXHl0dGA57HyGzxsj1E-Juk21NFp-GeVI4X5jFWaioH3ZyUOUqhjsbCvua-amVFYy9F_M43ojbtfuDaDjLudxf4_FFJWSai1JNVm4D9Wp41WPrQLoV8LW4bzuZpsJpuW_mGVWni36wv8wE8v1TzvzW8LsIuhEpg4zoous_kKaTl2TPkkJ2F48kiWZYXgL3gwLxPAeeRxmOf0Io-_cB5kiOqiweVs7GeBYAol0Do2T0fx6n9yOtd1lKorGVMHJJTD99L6YjPRfJCkDZY6FOlnheawvukHeC4mhn24Ewus6NEOR1H03rrmM2DWn9QIWnuJ0Hy3qHfA4okcY9P4VHc325C7UXt_FWi4yUgvN402ZUlykyF89MQbhupUhCMtmOwuKjTBN95nnB1sMOqSoj5ErSjFbrW21h8vhRP9-4nx0O2M1FhYNIyu09fi8RKunqcpJbUvMiKqFXeYme1GkE9iDPzKehwCvdHS5mPrwMtbScgzsVbIO-Xh71T8MNqvW6qm7GbNpjbFKJnMnMswwKHQKo42NbXCRXVh5f4PrcR2efP-Gen39F0jK9VlNZ38x3Z0L7FwhJuxA6rYNKy0Xn351bmr03PonopRj63n3uwrLzeF189gLIVOKhZDHnxBdGGWsVDYcBFgPhOSJ1eN4-rucOaizVyfGqhlW3YDXx9AsBB1cZGqJNInNNbnvaeMm6r1unNEbyg_uKRjAWPDMX9b6PrG_LIehj-XHb8TTl-CQFFAEC3cuXnV91LuFxD8wnPzLzHd7cPxgZl4YYvWWX7hzEv59thlhuRgEjcubPnFG7wiqy9grTPcp9w4rDKi_qNRpuTqQVmhpihfIdw2fXl-F6k0k55q4x2z4lSuv9m-hStQfmRsQ8YFoL1XJvuhnyeCtnqyRqqYL5bNTLN6YPFaP_Q0miUbnPC_OOfDzb-iaDLTTVozBwnbL2iVXyyTQmytfOwsxXMB_ls-qbnHfkEIvBhgbNFJaLeLJVGJanbKYhfZkjIlqmUljeR7coQEmUryryxVwmUkwpzewboKzu_zFiruxOrJEVZNwpiVjby_jGOhw5ohbkO7DoTNrsUk-Aiff4vSAtk7pjcrnYKTTuYr5jPRrSNDUdrpRZHpoERo6OI8pFRXY_MaswG2wmcgHkmelXTmJ1kpuf8ZwCkOV3Kf_Ot58nQ_6MOcIFCysImbHoiKxgV8GJQuas7z2qsjZqCO3NQjIDRJVnM-Yx1FwMEdz0s38k3chCUhbuLv_MoyNx-lIz3NkW1taTkcuoCbsHN9kxOk2tX4zHtv-TNlE3sNvUvtjaTs-FzB1DuA2RzfQ96YDRhuLnjmc6yN6ZjvqM-RzIMpANG_gMx8rP_3KOrNJzQX1bqPOWneIw9O8vqRm20WUNdjDYRtwqxP6ZVnKEdIKnp819IsIOdntQwYnzDDq0iFh_sWAcCce321oUsypLzxeD0Ahfk3lXrc8K3-7y1m00]--></g></svg>